<?xml version="1.0" encoding="utf-8"?>
<!-- Generator: Adobe Illustrator 16.0.0, SVG Export Plug-In . SVG Version: 6.00 Build 0)  -->
<!DOCTYPE svg PUBLIC "-//W3C//DTD SVG 1.1//EN" "http://www.w3.org/Graphics/SVG/1.1/DTD/svg11.dtd">
<svg version="1.1" id="Layer_1" xmlns="http://www.w3.org/2000/svg" xmlns:xlink="http://www.w3.org/1999/xlink" x="0px" y="0px"
	 width="590px" height="720px" viewBox="0 0 590 720" enable-background="new 0 0 590 720" xml:space="preserve">
<g>
	<path fill-rule="evenodd" clip-rule="evenodd" fill="#FDFDFD" d="M420.48,720.72c-138.788,0-277.575-0.012-416.361,0.083
		c-2.96,0.002-3.478-0.645-3.476-3.521C0.729,544.188,0.72,371.094,0.72,198c4.329-5.167,9.644-9.308,14.634-13.759
		c8.129-7.25,16.194-14.574,24.342-21.804c8.686-7.706,17.333-15.457,25.939-23.251c7.81-7.074,15.677-14.082,23.515-21.124
		c8.459-7.602,16.905-15.22,25.403-22.779c7.962-7.082,15.813-14.289,23.777-21.37c10.916-9.705,21.719-19.534,32.627-29.249
		c8.225-7.325,16.396-14.714,24.538-22.134c7.432-6.775,15.121-13.266,22.386-20.226c0.919-0.88,2.156-0.963,3.16-1.586
		c122.28,0,244.56,0.01,366.839-0.067c2.7-0.001,3.309,0.608,3.309,3.307c-0.074,237.841-0.066,475.681-0.111,713.521
		c0,1.053,0.831,2.441-0.676,3.239c-1.462-1.775-0.944-3.9-0.944-5.889c-0.028-46.78-0.021-93.562-0.024-140.342
		c0-1.188,0.062-2.384-0.088-3.976c-5.234,4.153-9.837,8.581-14.575,12.83c-15.791,14.165-31.586,28.324-47.371,42.493
		c-10.525,9.446-21.028,18.919-31.539,28.38c-10.511,9.459-21.087,18.85-31.598,28.308c-10.513,9.459-20.979,18.972-31.579,28.329
		C428.771,714.304,425.512,718.634,420.48,720.72z"/>
	<path fill-rule="evenodd" clip-rule="evenodd" fill="#756E66" d="M221.04,0.72c-5.981,5.388-11.946,10.798-17.949,16.161
		c-8.68,7.752-17.405,15.455-26.081,23.21c-5.14,4.595-10.205,9.273-15.338,13.875c-11.235,10.074-22.51,20.101-33.732,30.188
		c-5.753,5.172-11.375,10.49-17.145,15.642c-10.545,9.417-21.175,18.735-31.729,28.143c-5.327,4.748-10.532,9.632-15.843,14.397
		c-11.319,10.153-22.695,20.243-34.001,30.412c-5.836,5.249-11.408,10.807-17.416,15.848C8.094,191.709,5.121,195.708,0.72,198
		c0-64.744,0.021-129.488-0.072-194.232C0.644,1.145,1.22,0.649,3.788,0.651C76.204,0.736,148.623,0.72,221.04,0.72z"/>
	<path fill-rule="evenodd" clip-rule="evenodd" fill="#756E66" d="M420.48,720.72c10.148-9.087,20.315-18.155,30.439-27.269
		c5.658-5.093,11.22-10.293,16.875-15.389c9.274-8.357,18.58-16.682,27.892-24.998c13.204-11.79,26.443-23.54,39.634-35.346
		c5.585-4.998,11.052-10.131,16.632-15.134c10.971-9.834,22.003-19.601,32.959-29.452c1.68-1.511,3.085-3.329,5.489-4.683
		c0,50.758,0,101.514,0,152.27C533.76,720.72,477.12,720.72,420.48,720.72z"/>
	<path fill-rule="evenodd" clip-rule="evenodd" fill="#454749" d="M87.142,90.692c0.646,1.23,1.964,0.482,2.992,1.028
		c-2.447,6.516-6.005,12.458-9.458,18.455c0.032,2.513-1.905,4.034-3.162,5.797c-2.726,3.823-5.122,7.979-9.143,10.713
		c-9.451,9.79-21.067,16.375-33.086,22.366c-2.766,2.003-5.945,2.783-9.269,3.142c-2.648,0.598-5.33,0.594-8.02,0.432
		c-0.242,0.01-0.484,0.02-0.727,0.03c-1.2,0.515-2.411,0.5-3.631,0.078c-1.3-0.315-0.933-0.686-0.044-1.101
		c2.149-1.004,4.624-1.168,6.62-2.567c2.326-1.732,5.078-2.688,7.778-3.351c3.912-0.959,7.291-2.724,10.462-5.061
		c3.642-1.31,6.863-3.342,9.848-5.778c0.364-0.363,0.775-0.659,1.231-0.894c5.777-3.194,9.782-8.315,14.02-13.127
		c3.958-4.494,6.94-9.708,9.979-14.853c1.015-1.542,0.861-3.307,1.055-5.026c0.157-1.405-0.29-3.126,1.463-3.977
		c4.9,2.679,6.902,1.623,7.73-4.092c0.12-0.826,0.14-1.67,0.353-2.479c0.203-0.773,0.221-1.899,1.291-1.865
		C86.602,88.601,87.409,89.305,87.142,90.692z"/>
	<path fill-rule="evenodd" clip-rule="evenodd" fill="#FBFBFA" d="M49.667,134.629c-0.252,0.205-0.504,0.41-0.758,0.614
		c-2.195,1.153-4.113,3.635-7.002,1.461c-5.767-3.389-9.893-8.06-11.268-14.77c-0.907-4.424-0.29-8.504,3.229-11.749
		c0.748-0.247,0.921,0.258,1.062,0.808c-1.813,4.609-1.269,9.176,0.266,13.721c0.167,1.514,0.443,2.989,1.519,4.175
		c1.704,2.263,3.214,4.778,6.481,5.022c4.217-0.2,5.567-3.541,7.2-6.572c1.734-6.982-0.24-13.694-1.489-20.459
		c-0.227-1.227-1.028-0.92-1.915-0.788c-6.353,0.946-10.541-2.417-11.029-8.872c-0.296-3.929,0.618-7.575,2.879-10.845
		c1.481-0.073,1.372,1.088,1.571,2.012c-0.32,2.608-0.77,5.21-0.514,7.864c0.256,2.657,1.417,4.809,3.582,6.367
		c0.801,0.577,1.75,0.863,2.696,0.292c0.888-0.536,0.674-1.44,0.643-2.268c-0.153-4.042-1.207-8.098,0.186-12.122
		c0.416-0.692,0.796-1.646,1.763-1.352c0.813,0.248,0.472,1.197,0.538,1.862c0.079,0.803-0.189,1.651,0.318,2.397
		c0.534,3.276,1.068,6.553,1.602,9.83c0.316,0.891,1.739,0.613,1.84,1.736c0.495,2.91,1.048,5.809,1.763,8.681
		c0.374,4.523,0.399,9.044,0.009,13.564C53.885,128.791,53.359,132.583,49.667,134.629z"/>
	<path fill-rule="evenodd" clip-rule="evenodd" fill="#FBFBF9" d="M58.243,19.479c2.61,10.483-3.417,19.47-14.14,20.567
		c-2.85,0.292-3.681,1.04-3.85,3.916c-0.572,9.729-9.859,16.41-19.334,14.187c-0.26-0.062-0.443-0.447-0.857-0.889
		c0.649-0.146,1.061-0.301,1.478-0.321c9.347-0.444,14.664-5.487,15.744-14.784c0.206-1.768-0.348-2.593-1.976-3.172
		c-2.372-0.844-4.578-2.066-6.476-3.771c-0.145-0.667,0.27-0.905,0.801-1.054c2.391-0.097,4.409,1.647,6.808,1.471
		c-0.927-1.928-1.74-3.823-1.658-5.977c0.189-0.515,0.455-0.927,1.107-0.802c1.384,1.532,2.562,3.287,3.064,5.228
		c0.743,2.867,2.544,2.944,4.876,2.613c8.402-1.193,13.333-6.809,13.709-15.719C57.252,20.229,56.9,19.456,58.243,19.479z"/>
	<path fill-rule="evenodd" clip-rule="evenodd" fill="#F9F9F8" d="M87.142,90.692c-0.562-0.59-1.124-1.182-1.961-2.063
		c-0.912,2.842-0.132,5.633-1.329,8.106c-1.782,3.682-5.111,4.045-7.589,0.708c-1.795-0.918-2.345-2.49-2.361-4.382
		c-0.03-3.171-0.017-6.343-0.021-9.509c-0.039-3.513,1.139-6.582,3.965-8.679c1.846-1.371,1.44-3.343,2.061-5.039
		c0.018-1.75,0.015-3.501,0.062-5.25c0.034-1.23,0.333-2.496,1.728-2.683c1.608-0.216,0.867,1.648,1.647,2.248
		c0.758,0.488,0.994,1.252,1.111,2.081c-0.085,5.838,0.277,11.618,2.351,17.157c0.599,2.678,2.302,3.745,4.978,3.399
		c0.505,0.277,0.8,0.641,0.511,1.243C91.583,90.865,89.4,90.851,87.142,90.692z"/>
	<path fill-rule="evenodd" clip-rule="evenodd" fill="#666667" d="M79.906,69.835c0.925,2.486,1.546,4.495-1.876,6.056
		c-2.35,1.071-3.112,4.012-3.21,6.743c-0.38,0.614-0.272,1.358-0.531,2.006c-0.622,4.06-1.915,7.786-5.218,10.517
		c-1.074-0.94-1.181-2.287-1.512-3.552c-0.193-0.737,0.005-1.944-1.155-1.875c-0.967,0.058-1.076,1.152-1.302,1.943
		c-0.695,2.437-0.906,4.929-0.786,7.462c-0.083,2.141-0.824,4.189-0.771,6.352c0.021,0.915-0.048,2.155-1.126,2.355
		c-1.237,0.229-1.391-1.096-1.644-1.926c-0.9-2.952-1.644-5.946-1.591-9.073c0.12-0.402,0.315-0.764,0.582-1.088
		c2.433-2.673,3.397-6.175,5.152-9.235c3.551-6.194,7.143-12.304,12.614-17.067c0.5-0.436,0.7-1.216,1.072-1.895
		C79.646,68.063,78.875,69.465,79.906,69.835z"/>
	<path fill-rule="evenodd" clip-rule="evenodd" fill="#FEFCFD" d="M91.443,11.517c10.06,0.003,20.118-0.021,30.176,0.042
		c0.993,0.006,2.825-0.815,2.799,1.083c-0.025,1.855-1.849,1.049-2.847,1.052c-20.356,0.054-40.713,0.053-61.069,0.004
		c-0.998-0.002-2.826,0.783-2.798-1.099c0.028-1.854,1.842-1.041,2.847-1.047C70.848,11.489,81.146,11.514,91.443,11.517z"/>
	<path fill-rule="evenodd" clip-rule="evenodd" fill="#F6F6F4" d="M12.323,91.098c-0.001-10.186-0.022-20.372,0.032-30.556
		c0.006-1.041-0.708-2.839,1.07-2.899c1.857-0.063,1.155,1.762,1.157,2.779c0.044,20.371,0.047,40.742,0.004,61.113
		c-0.002,1.029,0.719,2.819-1.07,2.885c-1.903,0.07-1.147-1.769-1.154-2.766C12.3,111.469,12.324,101.283,12.323,91.098z"/>
	<path fill-rule="evenodd" clip-rule="evenodd" fill="#756F68" d="M35.212,29.622c0.634,2.223,2.794,5.209,1.426,6.495
		c-1.683,1.584-4.482-0.664-6.742-1.486c-0.11-0.04-0.227-0.063-0.341-0.094c-3.092-0.95-4.564-3.809-6.795-5.774
		c-0.901-0.918-1.176-2.166-1.738-3.265c-0.192-0.443,0.019,0.122-0.132-0.333c-0.533-1.616-2.201-3.279-0.808-4.929
		c1.579-1.87,3.483-0.335,5.219,0.213c0.979,0.375,1.886,0.893,2.769,1.453c1.516,0.75,2.689,1.877,3.6,3.292
		c0.247,0.248,0.493,0.496,0.739,0.744C33.77,26.842,35.02,27.829,35.212,29.622z"/>
	<path fill-rule="evenodd" clip-rule="evenodd" fill="#F9F8F6" d="M107.211,48.272c0.491-2.157,0.023-4.276-0.305-6.391
		c-0.241-1.552-0.346-3.086,0.088-4.612c0.27-0.945,0.641-1.913,1.82-1.894c1.392,0.021,1.209,1.195,1.326,2.107
		c0.282,2.21,0.081,4.525,1.401,6.512c1.553,1.811,1.494,4.074,1.762,6.245c0.076,1.917-0.242,3.858,0.354,5.745
		c0.326,2.1,1.336,4.047,1.404,6.208c-0.261,1.165-0.802,1.859-2.113,1.248l0.047-0.014c-0.485-1.411-2.276-1.477-2.872-2.779
		c-1.007-1.869-1.13-4.052-2.123-5.928C107.165,52.642,106.686,50.518,107.211,48.272z"/>
	<path fill-rule="evenodd" clip-rule="evenodd" fill="#F8F7F6" d="M132.318,63.821c2.039-6.088,0.307-11.898-1.313-17.716
		c-0.54-0.473-0.686-1.107-0.742-1.786c0.024,0.882-0.135,1.724-0.519,2.52c-0.079,0.935-0.159,1.869-0.238,2.803
		c-0.781,0.11-1.047-0.441-1.304-1.008c-0.277-3.335-1.039-6.628-0.93-10.001c0.309-1.633-0.117-3.251-0.105-4.874
		c0.017-2.368,0.873-2.698,3.305-1.4c0.168,0.039,0.333,0.086,0.496,0.143c0.919,0.762,1.358,1.648,0.723,2.811
		c-0.301,4.673,1.817,8.863,2.707,13.298c0.856,4.267,1.525,8.503,0.673,12.82c-0.249,1.263-0.567,2.6-1.708,3.475
		C132.495,65.045,132.146,64.684,132.318,63.821z"/>
	<path fill-rule="evenodd" clip-rule="evenodd" fill="#666667" d="M83.569,66.25c-0.075-0.7-0.151-1.4-0.227-2.1
		c4.185-2.449,7.817-5.819,12.549-7.377c1.163-0.383,2.273-0.653,3.476-0.611c1.018,1.587-0.308,2.631-0.983,3.73
		c-0.659,1.074-1.571,1.987-1.663,3.335c-1.394,0.232-2.925,0.125-3.846,1.548c-3.142,1.778-5.175,5.003-8.383,6.811
		C83.267,69.739,84.467,67.83,83.569,66.25z"/>
	<path fill-rule="evenodd" clip-rule="evenodd" fill="#F7F7F6" d="M110.172,71.315c-2.284,3.384-3.604,3.226-6.812-0.864
		c-0.767,0.928-0.106,2.03-0.412,2.981c-2.772-1.063-1.067-3.788-2.058-5.513c-0.281-1.125-0.423-2.284-0.797-3.389
		c-0.531-3.101-1.221-6.218,0.867-9.068c1.029-0.675,1.954-1.618,3.366-1.307c1.124,0.231,1.415,1.112,1.619,2.061
		c0.344,3.557-0.211,7.163,0.639,10.708c0.413,1.723,1.074,2.903,3.086,2.649C110.549,69.95,110.692,70.538,110.172,71.315z"/>
	<path fill-rule="evenodd" clip-rule="evenodd" fill="#F9F8F6" d="M56.21,17.256c-3.221-4.95-9.439-4.538-11.822-0.913
		c-1.272,1.937-1.699,3.976-0.472,6.084c1.224,2.104,3.103,2.408,5.296,1.77c0-0.257,0.09-0.607-0.014-0.679
		c-1.564-1.089-2.477-2.426-1.119-4.178c0.842-1.085,2.185-1.098,3.229-0.285c1.69,1.315,1.216,3.074,0.335,4.544
		c-1.574,2.63-4.041,3.246-6.857,2.303c-2.898-0.971-4.693-4.109-4.126-7.162c0.647-3.491,2.581-5.843,6.169-6.665
		c3.97-0.909,7.255,0.54,10.046,4.489C57.19,17.313,56.834,17.414,56.21,17.256z"/>
	<path fill-rule="evenodd" clip-rule="evenodd" fill="#F7F6F5" d="M130.472,32.358c-1.866-0.775-2.926-0.775-2.424,1.85
		c0.249,1.297,0.885,2.754,0.034,4.126c-1.521-0.218-1.342-1.633-1.827-2.563c-2.32,0.729-1.133,2.881-1.754,4.287
		c-1.561,4.877-0.403,9.542,1.095,14.185c-0.644,1.112-1.524,0.981-2.477,0.477c-0.241-0.236-0.482-0.472-0.724-0.708
		c-3.015-0.596-2.036-3.385-2.862-5.188c-0.338-2.91-1.74-5.776-0.375-8.759c0.153-0.128,0.308-0.256,0.463-0.383
		c1.007-2.112,1.814-4.352,3.068-6.304C124.474,30.601,128.493,30.201,130.472,32.358z"/>
	<path fill-rule="evenodd" clip-rule="evenodd" fill="#F6F5F5" d="M92.804,64.074c1.014-1.331,2.017-2.729,3.652-0.667
		c1.919,2.866,0.677,6.289,1.652,9.318c0.077,2.484-0.016,5.03,2.407,6.675c0.396,0.41,0.676,0.854,0.416,1.45
		c-0.69,1.063-1.864,1.522-2.729,0.768c-4.332-3.779-3.656,0.655-4.475,2.64c-0.088,0.214-0.103,0.459-0.152,0.691
		c-0.706,0.164-1.015-0.278-1.259-0.823c-0.226-0.743-0.184-1.49-0.032-2.238c0.491-2.533,0.653-5.061-0.141-7.571
		c-0.465-1.281-0.865-2.572-0.591-3.962C92.095,68.287,91.45,65.98,92.804,64.074z"/>
	<path fill-rule="evenodd" clip-rule="evenodd" fill="#F9F8F5" d="M13.738,53.259c-2.142-3.235-2.165-6.537-0.032-9.725
		c1.75-2.616,4.361-3.626,7.478-3.248c3.009,0.365,4.716,2.273,5.356,5.043c0.56,2.418-0.212,4.56-2.467,5.841
		c-1.637,0.93-3.431,1.405-4.771-0.507c-0.951-1.356-0.409-2.6,0.894-3.327c2.105-1.175,2.986,0.445,3.964,2.152
		c1.256-2.452,0.954-4.443-1.204-5.921c-2.279-1.561-5.932-0.68-7.682,1.71c-1.636,2.235-1.492,4.683-0.813,7.186
		C14.805,53.26,14.388,53.366,13.738,53.259z"/>
	<path fill-rule="evenodd" clip-rule="evenodd" fill="#EFEDEB" d="M144.037,39.66c-0.653,2.431-2.566,2.99-4.709,3.03
		c-2.124,0.04-3.233-1.484-3.957-3.163c-2.249-5.215-2.133-10.519,0.194-15.632c0.82-1.801,2.045-4.103,4.885-2.384
		c0.261,0.562-0.009,0.986-0.353,1.394c-3.349,3.284-2.861,7.142-1.648,11.098c0.29,0.142,0.535,0.335,0.75,0.572
		c0.146,0.326,0.227,0.673,0.159,1.017c-0.239,1.209-1.024,2.445,0.232,3.557c1.47,1.303,2.559-0.301,3.833-0.503
		C143.968,38.777,144.398,38.98,144.037,39.66z"/>
	<path fill-rule="evenodd" clip-rule="evenodd" fill="#666566" d="M25.919,151.207c3.339,0.225,6.092-2.094,9.366-2.156
		c-1.493,4.118-5.354,5.423-8.753,7.154c-3.226,1.644-6.641,2.917-9.973,4.352c-0.95,0.814-2.105,1.021-2.749-0.079
		c-0.603-1.032,0.485-1.812,1.305-2.143C19.206,156.681,22.287,153.534,25.919,151.207z"/>
	<path fill-rule="evenodd" clip-rule="evenodd" fill="#78736C" d="M143.465,38.958c-1.091,1.332-2.196,2.615-4.135,1.34
		c-2.613-1.719-1.534-3.735-0.469-5.752c1.717-3.872,1.792-8.121,2.791-12.158c1.586,0.803,0.518,2.415,1.148,3.657
		c0.819-0.277,1.666-0.564,2.513-0.851c0.262,0.201,0.373,0.465,0.337,0.792c-0.267,0.75-0.855,1.25-1.387,1.789
		c-1.123,1.538,0.614,1.014,1.045,1.432c0.295,0.185,0.505,0.435,0.655,0.745c0.452,2.142-0.955,4.127-0.515,6.266
		c0.018,0.122,0.029,0.244,0.032,0.366C144.766,37.338,144.311,38.314,143.465,38.958z"/>
	<path fill-rule="evenodd" clip-rule="evenodd" fill="#484848" d="M97.261,73.421c-0.638-3.308-1.002-6.638-0.805-10.013
		c-0.776-3.117,2.642-4.549,2.912-7.246c0.531-0.233,1.062-0.466,1.592-0.699c-0.886,3.085-0.168,6.191-0.118,9.288
		c0.692,2.842,0.562,5.609-1.003,8.143C99.262,73.826,98.511,75.197,97.261,73.421z"/>
	<path fill-rule="evenodd" clip-rule="evenodd" fill="#484849" d="M112.351,50.385c-0.27-2.13-0.539-4.26-0.809-6.39
		c1.608-2.656,4.768-3.37,6.871-5.453c0.74-0.732,0.973,0.54,1.209,1.139l0.013-0.021c-0.405,3.716-0.962,7.343-4.532,9.584
		C114.234,49.79,113.597,50.786,112.351,50.385z"/>
	<path fill-rule="evenodd" clip-rule="evenodd" fill="#F3F1EE" d="M39.641,88.649c-0.095-0.818,0.099-1.737-0.798-2.272
		c2.192-4.135,5.49-6.764,10.205-7.397c1.524-0.205,2.873,0.252,3.704,1.625c1.071,1.769-0.945,1.768-1.56,2.571
		c-1.907,2.491-1.302,5.454-1.568,8.254c-0.965-0.78-0.487-1.898-0.693-2.859c-0.396-1.848-0.933,0.143-1.409-0.011
		c-1.71-2.319,0.247-4.227,0.71-6.52c-2.607,0.032-4.156,1.552-5.571,3.473C41.808,86.672,41.575,88.509,39.641,88.649z"/>
	<path fill-rule="evenodd" clip-rule="evenodd" fill="#69696A" d="M50.396,127.341c-0.201,5.093-2.856,7.516-7.2,6.572
		c-1.127-1.548,0.769-2.13,1.241-2.817c2.329-3.397,3.786-7.217,5.959-11.698C50.396,122.653,50.396,124.997,50.396,127.341z"/>
	<path fill-rule="evenodd" clip-rule="evenodd" fill="#F1EFEA" d="M40.395,109.393c4.156,3.215,6.356,10.143,4.768,15.017
		c-1.479,4.544-4.744,5.063-9.006,1.432c-0.147-0.103-0.293-0.206-0.441-0.308c-0.29-0.485-0.359-1.006-0.266-1.557
		c0.324-1.021,0.964-1.446,2.026-1.075c1.03,0.827,1.479,2.795,3.362,1.984c1.627-0.702,1.969-2.31,2.113-3.893
		c0.249-2.736-0.705-5.167-2.018-7.497c-0.632-1.121-1.76-2.008-1.679-3.479C39.456,109.482,39.724,109.068,40.395,109.393z"/>
	<path fill-rule="evenodd" clip-rule="evenodd" fill="#726F6C" d="M25.919,151.207c0.852,1.636-0.651,1.85-1.49,2.13
		c-2.125,0.708-3.266,2.73-5.246,3.63c-1.785,0.812-3.451,1.881-5.257,2.885c0.981,1.009,1.855,0.587,2.632,0.707
		c-1.198,2.714-3.348,0.945-5.148,1.362c1.078-5.082,6.433-5.001,9.162-7.583c-0.693-1.618-2.591,0.289-2.576-1.71
		C20.504,151.409,23.337,152.006,25.919,151.207z"/>
	<path fill-rule="evenodd" clip-rule="evenodd" fill="#787470" d="M59.765,95.754c-0.017,0.277-0.034,0.555-0.05,0.831
		c-1.479,1.676-0.989,3.749-1.126,5.687c-0.09,1.277,0.066,2.579-0.456,3.799c-1.521,0.165-2.526,0.721-2.68,2.521
		c-0.079,0.939-0.379,2.12-1.602,2.51c-0.713-2.71-1.753-5.367-1.369-8.259c2.176-2.426,2.5-5.644,3.639-8.513
		C56.851,96.045,58.226,96.11,59.765,95.754z"/>
	<path fill-rule="evenodd" clip-rule="evenodd" fill="#74716D" d="M38.878,141.111c-5.444,4.477-12.242,5.777-18.666,7.955
		c-0.85-0.148-1.583-0.844-0.422-1.129c3.245-0.795,5.937-3.006,9.392-3.281c2.781-0.221,4.954-2.06,7.238-3.529
		c1.082-0.696,1.74-2.011,3.18-2.168C40.449,140.042,39.652,140.573,38.878,141.111z"/>
	<path fill-rule="evenodd" clip-rule="evenodd" fill="#494A4A" d="M105.16,56.158c-0.278-0.667-0.557-1.334-0.835-2.002
		c-2.002-3.415,1.813-3.976,2.886-5.883c0.519,2.127,1.038,4.252,1.556,6.378c0.622,1.417,0.353,2.526-1.148,3.156
		C105.99,58.49,105.612,57.257,105.16,56.158z"/>
	<path fill-rule="evenodd" clip-rule="evenodd" fill="#74716E" d="M68.371,126.686c4.596-5.135,8.645-10.678,12.304-16.51
		c1.928,3.581-1.921,4.922-3.117,7.082c-1.891,3.417-5.011,6.149-7.568,9.208C69.45,127.111,69.04,127.526,68.371,126.686z"/>
	<path fill-rule="evenodd" clip-rule="evenodd" fill="#F1EEEA" d="M25.88,21.073c-1.819-0.136-3.986-2.062-5.284-0.491
		c-1.152,1.393,0.752,3.46,1.031,5.291c0.164,0.175,0.234,0.363,0.212,0.562c-0.022,0.205-0.056,0.308-0.102,0.308
		c-0.305,0.163-0.597,0.15-0.875-0.065c-1.015-2.51-2.037-5.016-3.043-7.53c-0.703-1.755,0.094-2.184,1.645-1.718
		c2.257,0.677,4.504,1.406,6.445,2.819c0.198,0.19,0.259,0.375,0.185,0.557C26.021,20.983,25.95,21.073,25.88,21.073z"/>
	<path fill-rule="evenodd" clip-rule="evenodd" fill="#ECE9E3" d="M120.328,48.947c1.323,1.429-0.172,4.01,2.067,5.064
		c-1.945,1.177-0.876,3.23-1.352,4.836c-0.768,2.593-1.542,5.103-4.446,5.965c-1.424,0.422-2.853,0.199-3.648-1.373
		c0.938-0.085,1.501-0.546,1.536-1.535c2.743,0.145,3.954-1.436,4.514-3.882c0.456-1.988,0.276-3.983,0.29-5.985
		C119.35,50.909,119.282,49.739,120.328,48.947z"/>
	<path fill-rule="evenodd" clip-rule="evenodd" fill="#E9E7E4" d="M141.652,22.387c0.66,4.417,0.743,8.703-2.79,12.158
		c-0.152,0.033-0.306,0.05-0.462,0.052c-0.52-0.313-0.749-0.795-0.808-1.378c-0.095-1.14,0.316-2.164,0.733-3.185
		c1.48-2.368,0.667-5.095,1.183-7.613c0.313-0.303,0.627-0.607,0.94-0.91C140.851,21.803,141.251,22.095,141.652,22.387z"/>
	<path fill-rule="evenodd" clip-rule="evenodd" fill="#E7E5E1" d="M56.121,94.331c0.502,3.571-0.472,6.511-3.639,8.513
		c-0.32-0.606-1.278-0.705-1.256-1.583c3.398-1.648,3.822-3.911,1.46-7.934C54.21,92.395,55.09,93.63,56.121,94.331z"/>
	<path fill-rule="evenodd" clip-rule="evenodd" fill="#656565" d="M38.878,141.111c0.24-0.717,0.481-1.435,0.721-2.151
		c0.769-0.752,1.539-1.503,2.308-2.255c2.508,0.35,4.813-0.282,7.002-1.461C46.029,137.991,42.878,140.277,38.878,141.111z"/>
	<path fill-rule="evenodd" clip-rule="evenodd" fill="#F8F4F4" d="M110.172,71.315c-0.208-0.49-0.416-0.981-0.624-1.472
		c-0.625-3.309-1.623-6.665,1.24-9.52c0.631,1.109,2.465,1.363,2.208,3.104c-0.941-0.643-1.322-0.515-1.494,0.739
		C111.173,66.564,111.422,69.085,110.172,71.315z"/>
	<path fill-rule="evenodd" clip-rule="evenodd" fill="#E9E5DE" d="M100.931,80.851c-0.271-0.305-0.543-0.61-0.814-0.914
		c0.157-4.123,0.065-8.274,1.422-12.257c1.742,1.606-0.245,4.125,1.409,5.752C103.005,76.104,102.978,78.752,100.931,80.851z"/>
	<path fill-rule="evenodd" clip-rule="evenodd" fill="#E6E3DD" d="M123.119,54.72c0.811-0.061,1.717,0.136,2.2-0.813
		c1.791-1.256,1.343-4.053,3.489-5.066c0.232,0.267,0.466,0.534,0.698,0.8C129.29,55.041,127.343,56.588,123.119,54.72z"/>
	<path fill-rule="evenodd" clip-rule="evenodd" fill="#DAD6D2" d="M145.346,25.946c-0.01-0.251-0.021-0.502-0.032-0.752
		c0.149-0.65-0.169-1.663,0.784-1.751c0.728-0.069,0.765,0.781,0.755,1.369c-0.042,2.617,0.48,5.274-0.54,7.824
		c-1.159-1.027,0.187-2.84-1.194-3.798C144.541,27.821,144.89,26.879,145.346,25.946z"/>
	<path fill-rule="evenodd" clip-rule="evenodd" fill="#494445" d="M154.742,26.583c-1.688,0.533-3.366,1.1-5.068,1.581
		c-0.663,0.187-1.665,1.072-1.893-0.414c-0.148-0.967,0.736-1.011,1.446-1.116c1.628-0.24,3.253-0.5,4.881-0.752
		C154.834,25.649,154.928,25.989,154.742,26.583z"/>
	<path fill-rule="evenodd" clip-rule="evenodd" fill="#4A494C" d="M131.691,35.313c-0.241-0.937-0.482-1.874-0.723-2.811
		c0.301-0.903,0.96-2.155,1.744-1.018C133.496,32.621,134.086,34.596,131.691,35.313z"/>
	<path fill-rule="evenodd" clip-rule="evenodd" fill="#E8E4DE" d="M23.166,28.48c2.129,2.019,4.259,4.039,6.389,6.058
		c-0.241,0.225-0.481,0.45-0.722,0.674c-2.448-1.37-4.272-3.376-5.793-5.69C22.716,29.129,22.758,28.783,23.166,28.48z"/>
	<path fill-rule="evenodd" clip-rule="evenodd" fill="#A3A19E" d="M146.055,18.508c0.048-0.664,0.096-1.328,0.144-1.993
		c0.244-0.184,0.51-0.325,0.804-0.418c0.292-0.107,0.592-0.181,0.899-0.224c0.626,0,1.248-0.286,1.878-0.028
		c0.479,0.934,0.53,1.865-0.016,2.792l-0.208,0.115C148.355,19.148,147.161,19.456,146.055,18.508z"/>
	<path fill-rule="evenodd" clip-rule="evenodd" fill="#EDE8E3" d="M145.544,28.82c1.14,1.093,0.297,2.585,0.769,3.814
		c-0.058,1.25,0.004,2.528-0.865,3.582c-1.524-2.179,0.717-4.507-0.267-6.707C145.127,29.187,145.249,28.957,145.544,28.82z"/>
	<path fill-rule="evenodd" clip-rule="evenodd" fill="#7C7670" d="M154.742,26.583c-0.212-0.233-0.423-0.467-0.635-0.701
		c0.384-0.236,0.745-0.606,1.155-0.674c0.721-0.118,1.509-1.032,2.174-0.055c0.19,0.277,0.087,0.966-0.14,1.278
		C156.556,27.445,155.661,27.699,154.742,26.583z"/>
	<path fill-rule="evenodd" clip-rule="evenodd" fill="#EBE8E2" d="M132.318,63.821c0.349,0.361,0.696,0.723,1.045,1.084
		c-1.29,2.174-3.149,2.092-5.185,1.31c-0.051-1.417,0.859-0.973,1.612-0.833C130.632,64.862,131.475,64.342,132.318,63.821z"/>
	<path fill-rule="evenodd" clip-rule="evenodd" fill="#726F6C" d="M13.639,152.734c1.21-0.026,2.421-0.052,3.631-0.079
		c-1.985,0.674-3.971,1.349-6.258,2.125C11.476,152.825,13.158,153.776,13.639,152.734z"/>
	<path fill-rule="evenodd" clip-rule="evenodd" fill="#EDE8E1" d="M13.738,53.259c0.241-0.265,0.481-0.53,0.722-0.795
		c1.21,1.215,2.419,2.43,3.629,3.646c-0.16,0.329-0.421,0.534-0.771,0.632C15.693,56.025,14.438,54.927,13.738,53.259z"/>
	<path fill-rule="evenodd" clip-rule="evenodd" fill="#D2CDC8" d="M34.538,110.845c-0.224-0.22-0.447-0.439-0.669-0.659
		c1.218-1.327,2.542-2.363,4.506-1.643c-0.049,0.533-0.311,0.956-0.675,1.33C36.754,110.542,35.894,111.504,34.538,110.845z"/>
	<path fill-rule="evenodd" clip-rule="evenodd" fill="#9B9B96" d="M129.745,46.838c-0.199-1.23-0.322-2.458,0.081-3.77
		c1.131,0.788,1.221,1.886,1.18,3.036C130.585,46.349,130.166,46.593,129.745,46.838z"/>
	<path fill-rule="evenodd" clip-rule="evenodd" fill="#E8E3DE" d="M35.212,29.622c-0.935-1.228-1.869-2.455-2.804-3.683
		c2.206-0.279,2.645,1.554,3.483,2.911C35.664,29.107,35.438,29.365,35.212,29.622z"/>
	<path fill-rule="evenodd" clip-rule="evenodd" fill="#DAD3CD" d="M31.669,25.195c-1.21-0.951-2.421-1.901-3.632-2.853
		c0.15-0.32,0.395-0.535,0.731-0.643C30.047,22.605,31.959,22.986,31.669,25.195z"/>
	<path fill-rule="evenodd" clip-rule="evenodd" fill="#E2DFDC" d="M56.21,17.256c0.222-0.23,0.444-0.459,0.666-0.69
		c0.87,0.777,1.342,1.74,1.367,2.913c-0.234,0.497-0.468,0.995-0.701,1.492C57.098,19.733,56.654,18.495,56.21,17.256z"/>
	<path fill-rule="evenodd" clip-rule="evenodd" fill="#E5E3E2" d="M92.783,84.067c0.264,0.294,0.528,0.588,0.792,0.883
		c-0.046,1.185-0.469,2.213-1.283,3.08c-0.293-0.307-0.587-0.614-0.881-0.92C90.658,85.549,91.189,84.568,92.783,84.067z"/>
	<path fill-rule="evenodd" clip-rule="evenodd" fill="#888480" d="M36.714,128.891c-1.254-0.882-1.875-2.13-2.09-3.613
		c0.787-0.412,1.016,0.438,1.517,0.67c0,0,0.016-0.105,0.015-0.105C36.343,126.858,36.528,127.874,36.714,128.891z"/>
	<path fill-rule="evenodd" clip-rule="evenodd" fill="#D3D2D0" d="M149.764,18.637c-0.114-0.96,0.127-2.014-0.727-2.781
		c-0.106-0.058-0.211-0.116-0.318-0.173c-0.142-0.214-0.16-0.436-0.034-0.665C151.051,15.206,151.23,15.806,149.764,18.637z"/>
	<path fill-rule="evenodd" clip-rule="evenodd" fill="#E0DAD6" d="M143.465,38.958c0.383-1.036,0.586-2.225,2.015-2.374
		c-0.133,1.188-0.376,2.325-1.442,3.075C143.847,39.426,143.656,39.192,143.465,38.958z"/>
	<path fill-rule="evenodd" clip-rule="evenodd" fill="#E2DBD6" d="M23.166,28.48c-0.042,0.347-0.084,0.694-0.126,1.042
		c-0.291-0.241-0.581-0.481-0.871-0.722c-0.441-0.525-1.29-0.895-0.691-1.815c0.05-0.371,0.099-0.741,0.149-1.112
		C22.139,26.742,22.652,27.611,23.166,28.48z"/>
	<path fill-rule="evenodd" clip-rule="evenodd" fill="#D2CDC7" d="M129.791,65.382c-0.537,0.278-1.075,0.555-1.612,0.833
		c-0.747-0.117-1.616-0.768-1.252-1.237C127.888,63.739,128.827,65.133,129.791,65.382z"/>
	<path fill-rule="evenodd" clip-rule="evenodd" fill="#E7E2DC" d="M28.768,21.7c-0.243,0.214-0.487,0.429-0.731,0.643
		c-0.719-0.423-1.438-0.847-2.157-1.271c0.01-0.274,0.02-0.549,0.029-0.824C26.862,20.732,27.815,21.216,28.768,21.7z"/>
	<path fill-rule="evenodd" clip-rule="evenodd" fill="#756F68" d="M21.478,26.984c0.23,0.605,0.461,1.21,0.691,1.815
		c-1.362-0.138-2.048-0.691-1.307-2.123C21.076,26.763,21.281,26.865,21.478,26.984z"/>
	<path fill-rule="evenodd" clip-rule="evenodd" fill="#FBF6F1" d="M17.318,56.742c0.257-0.211,0.514-0.421,0.771-0.632
		c0.564,0.123,1.523,0.288,1.195,0.912C18.64,58.246,17.976,56.968,17.318,56.742z"/>
	<path fill-rule="evenodd" clip-rule="evenodd" fill="#E2DED9" d="M37.435,109.467c0.313-0.307,0.626-0.615,0.939-0.923
		c0.777,0.038,1.555,0.072,2.021,0.849c-0.268,0.264-0.536,0.526-0.804,0.79C38.654,110.6,37.992,110.193,37.435,109.467z"/>
	<path fill-rule="evenodd" clip-rule="evenodd" fill="#E6E4E1" d="M146.055,18.508c1.168,0.081,2.335,0.163,3.502,0.244
		C148.313,19.758,147.116,20.101,146.055,18.508z"/>
	<path fill-rule="evenodd" clip-rule="evenodd" fill="#E6E4E1" d="M149.037,15.856c-0.382,0.53-0.872,0.837-1.552,0.746
		c-0.089-0.215-0.244-0.356-0.468-0.423c-0.001,0-0.105-0.308-0.105-0.308c0.192-1.044,0.975-0.899,1.71-0.849
		c-0.073,0.397,0.213,0.612,0.438,0.856L149.037,15.856z"/>
	<path fill-rule="evenodd" clip-rule="evenodd" fill="#FCF9F5" d="M146.963,16.589c-0.255-0.025-0.51-0.049-0.765-0.074
		c0.021-0.455,0.292-0.631,0.712-0.645c0,0-0.055-0.038-0.055-0.038c0.161,0.148,0.231,0.311,0.209,0.486
		C147.042,16.498,147.008,16.589,146.963,16.589z"/>
	<path fill-rule="evenodd" clip-rule="evenodd" fill="#807F7C" d="M149.06,15.877c-0.527-0.089-0.619-0.402-0.44-0.856
		c0.001,0,0.068-0.002,0.066-0.003C148.81,15.305,148.935,15.591,149.06,15.877z"/>
	<path fill-rule="evenodd" clip-rule="evenodd" fill="#FCFBF9" d="M568.805,665.185c-7.688,1.821-12.395,7.435-12.856,15.173
		c-0.085,1.443,0.385,2.188,1.701,2.68c2.472,0.924,4.767,2.197,6.81,3.886c0.164,0.669-0.245,0.918-0.777,1.076
		c-2.4,0.127-4.422-1.645-6.828-1.456c0.904,1.944,1.753,3.837,1.636,6.004c-0.2,0.517-0.478,0.921-1.129,0.775
		c-1.354-1.547-2.536-3.287-3.029-5.231c-0.723-2.847-2.507-2.951-4.847-2.628c-8.628,1.19-13.718,7.234-13.668,16.34
		c0.299,0.775-0.072,0.97-0.767,0.882c-2.761-10.729,3.49-19.489,14.82-20.69c1.583-0.166,2.842,0.02,3.061-2.353
		c1.048-11.308,7.425-16.555,18.702-15.702C571.32,665.786,569.557,664.337,568.805,665.185z"/>
	<path fill-rule="evenodd" clip-rule="evenodd" fill="#F5F5F4" d="M578.658,630.717c-0.002-10.063-0.025-20.126,0.037-30.188
		c0.007-1.005-0.731-2.843,1.147-2.793c1.804,0.048,1.079,1.854,1.081,2.88c0.047,20.365,0.045,40.731,0,61.095
		c-0.002,1.017,0.714,2.832-1.151,2.784c-1.808-0.047-1.074-1.843-1.079-2.87C578.638,651.321,578.658,641.02,578.658,630.717z"/>
	<path fill-rule="evenodd" clip-rule="evenodd" fill="#FEFEFC" d="M501.816,710.632c-10.058,0-20.117,0.025-30.174-0.038
		c-0.992-0.006-2.835,0.794-2.773-1.111c0.06-1.836,1.884-1.004,2.876-1.007c20.355-0.061,40.711-0.062,61.065-0.017
		c0.99,0.002,2.825-0.793,2.764,1.119c-0.058,1.83-1.859,1.021-2.867,1.026c-10.297,0.063-20.595,0.039-30.891,0.039
		C501.816,710.64,501.816,710.636,501.816,710.632z"/>
	<path fill-rule="evenodd" clip-rule="evenodd" fill="#756F67" d="M558.063,692.547c-0.611-2.23-2.786-5.204-1.408-6.504
		c1.676-1.58,4.478,0.639,6.721,1.497c0.11,0.042,0.228,0.06,0.343,0.088c2.858,0.971,4.55,3.374,6.586,5.356
		c1.055,1.645,2.184,3.249,2.745,5.156c-0.077,1.352,1.446,2.801-0.055,4.028c-1.737,1.419-3.407-0.007-5.09-0.377
		c-0.924-0.534-1.886-1.003-2.791-1.575c-1.614-0.952-3.026-2.151-4.279-3.542c0.023-0.139,0.04-0.278,0.053-0.417
		C559.552,695.32,558.256,694.354,558.063,692.547z"/>
	<path fill-rule="evenodd" clip-rule="evenodd" fill="#F8F6F4" d="M569.478,673.712c-2.594,2.571-0.436,4.021,1.459,5.124
		c2.037,1.188,4.217,0.532,5.974-0.859c2.009-1.59,2.717-3.838,2.285-6.357c-0.354-2.077-1.542-3.69-3.151-5.008
		c-0.095-0.615-0.025-1.044,0.755-0.659c3.871,3.068,5.236,7.053,3.741,10.923c-1.332,3.446-4.551,5.439-8.186,5.026
		c-2.591-0.296-4.524-1.621-5.354-4.1c-0.798-2.389-0.735-4.72,1.725-6.304C569.557,672.039,569.791,672.782,569.478,673.712z"/>
	<path fill-rule="evenodd" clip-rule="evenodd" fill="#F8F6F4" d="M541.48,708.459c2.139,0.128,4.326,0.269,6.082-1.234
		c2.142-1.831,3.193-4.122,2.062-6.929c-1.122-2.783-3.413-2.912-5.921-2.384c-0.373-0.347-0.441-0.745-0.207-1.195
		c2.79-1.659,5.335-0.966,7.418,1.154c2.12,2.159,2.365,4.87,1.144,7.607c-1.453,3.259-4.112,4.871-7.623,4.858
		c-1.513-0.005-3.1-0.222-4.396-1.229C540.087,707.935,540.701,708.016,541.48,708.459z"/>
	<path fill-rule="evenodd" clip-rule="evenodd" fill="#F3F1EC" d="M567.406,701.064c0.339,0.073,0.686,0.124,1.018,0.226
		c4.863,1.472,4.945,1.398,3.885-3.497c-0.352-0.658,0.019-0.899,0.591-1.027c0.563,0.186,0.713,0.672,0.852,1.168
		c0.286,2.302,2.98,5.56,1.593,6.363c-2.491,1.441-5.42-0.94-7.988-2.285C567.037,701.677,567.054,701.361,567.406,701.064z"/>
	<path fill-rule="evenodd" clip-rule="evenodd" fill="#F0EFED" d="M543.496,696.717c0.069,0.398,0.138,0.797,0.207,1.195
		c0.256,0.37,0.434,0.854,0.78,1.09c1.404,0.961,1.815,2.18,0.904,3.619c-0.754,1.193-2.062,1.3-3.139,0.699
		c-1.408-0.787-1.652-2.157-1.086-3.682C541.624,698.396,542.144,697.232,543.496,696.717z"/>
	<path fill-rule="evenodd" clip-rule="evenodd" fill="#F4F3F1" d="M569.478,673.712c-0.25-0.737-0.501-1.474-0.752-2.213
		c0.366-0.295,0.689-0.719,1.106-0.859c1.522-0.511,3.061-0.806,4.17,0.825c0.826,1.214,0.493,2.331-0.542,3.166
		C571.813,675.958,570.6,674.921,569.478,673.712z"/>
	<path fill-rule="evenodd" clip-rule="evenodd" fill="#756F67" d="M573.751,697.934c-0.253-0.303-0.505-0.605-0.758-0.906
		c-1.318-1.171-2.052-2.771-3.059-4.171c-0.276-0.836-1.686-1.153-1.094-2.386c1.773,0.006,3.546,0.008,5.318,0.02
		c0.9,0.008,1.731,0.181,1.768,1.308c0.023,0.749,0.166,1.729-1.088,1.52c-0.164-0.027-0.075-1.036-0.33-1.178
		c-0.31-0.171-0.935-0.016-1.29,0.209c-0.495,0.313-0.951,0.85-0.19,1.373C574.726,694.893,573.505,696.532,573.751,697.934z"/>
	<path fill-rule="evenodd" clip-rule="evenodd" fill="#ECE7E1" d="M541.48,708.459c-0.481,0.217-0.962,0.435-1.441,0.649
		c-2.746-1.299-4.326-3.506-4.989-6.424c0.255-0.294,0.511-0.586,0.766-0.882C536.77,704.816,538.607,707.077,541.48,708.459z"/>
	<path fill-rule="evenodd" clip-rule="evenodd" fill="#E8E2DD" d="M568.841,690.471c0.469,0.718,0.938,1.438,1.405,2.158
		c0.394,0.699-0.003,0.74-0.548,0.658c-1.993-1.887-3.985-3.772-5.979-5.659c0.247-0.234,0.494-0.47,0.74-0.705
		C566.3,687.635,567.246,689.453,568.841,690.471z"/>
	<path fill-rule="evenodd" clip-rule="evenodd" fill="#E9E6E2" d="M576.799,665.952c-0.252,0.22-0.504,0.439-0.755,0.659
		c-2.261-1.248-4.731-1.436-7.239-1.427c0.942-0.416,1.886-0.83,2.828-1.245C573.574,664.048,575.34,664.607,576.799,665.952z"/>
	<path fill-rule="evenodd" clip-rule="evenodd" fill="#D5D1CC" d="M560.835,696.675c1.699,0.723,3.04,1.951,4.409,3.14
		c-0.146,0.323-0.395,0.536-0.729,0.649C562.991,699.49,561.168,698.807,560.835,696.675z"/>
	<path fill-rule="evenodd" clip-rule="evenodd" fill="#E6E3DE" d="M558.063,692.547c0.94,1.238,1.882,2.474,2.824,3.711
		c-2.202,0.254-2.64-1.611-3.527-2.936C557.594,693.064,557.83,692.806,558.063,692.547z"/>
	<path fill-rule="evenodd" clip-rule="evenodd" fill="#EAE5E0" d="M564.516,700.464c0.243-0.216,0.486-0.433,0.729-0.649
		c0.721,0.416,1.442,0.834,2.162,1.25c-0.019,0.315-0.033,0.632-0.051,0.947C566.409,701.495,565.463,700.979,564.516,700.464z"/>
	<path fill-rule="evenodd" clip-rule="evenodd" fill="#746F67" d="M49.667,134.629c2.172-2.554,3.294-5.619,4.275-8.754
		c1.717-1.119,1.706-3.19,2.59-4.77c1.461-2.611,2.81-5.275,4.756-7.575c2-0.224,2.985-1.232,2.548-3.335
		c-0.047-5.053,0.016-10.091,0.615-15.545c2.028,0.939,2.359,2.328,2.715,3.627c1.064,3.884,2.477,7.443,7.024,8.399
		c-5.36,9.479-11.901,18.021-20.033,25.306C52.833,133.171,51.63,134.535,49.667,134.629z"/>
	<path fill-rule="evenodd" clip-rule="evenodd" fill="#F6F5F4" d="M74.192,106.677c-3.359,1.081-5.018-0.809-6.41-3.484
		c-1.255-2.415-1.497-5.164-2.739-8.624c-0.953,6.128-0.045,11.226-0.261,16.305c-1.887-0.336-1.418-1.782-1.5-3.042
		c-0.202-3.065,0.748-6.109,0.138-9.176c-0.279-2.771,0.233-5.463,0.968-8.101c0.344-1.236,0.847-2.72,2.52-2.529
		c1.558,0.176,1.436,1.629,1.577,2.801c0.169,1.415,0.384,2.824,0.579,4.236c1.899,1.968,0.511,5.268,3.553,7.652
		c1.151-6.417-0.195-12.626,1.495-18.463c0.236-0.539,0.472-1.078,0.708-1.617c0.022,3.053,0.147,6.11,0.031,9.158
		c-0.079,2.066,0.311,3.925,1.411,5.651C74.667,100.318,76.301,103.917,74.192,106.677z"/>
	<path fill-rule="evenodd" clip-rule="evenodd" fill="#756F68" d="M39.641,88.649c1.817-2.72,3.091-5.926,6.438-7.282
		c1.196-0.485,2.403-1.014,4.033-0.51c-1.37,2.428-2.936,4.782-2.589,7.703c-0.902,4.032-0.054,8.016,0.314,12.017
		c0.12,1.307,1.186,2.934-0.839,3.701c-1.695,0.643-3.31,0.352-4.643-0.958c-3.604-3.543-4.24-7.871-3.273-12.602
		C39.224,90.02,39.452,89.338,39.641,88.649z"/>
	<path fill-rule="evenodd" clip-rule="evenodd" fill="#756E67" d="M37.435,109.467c0.719,0.239,1.438,0.478,2.156,0.716
		c3.392,3.773,5.142,8.041,3.827,13.161c-0.412,1.605-1.389,2.884-3.188,2.968c-1.999,0.093-2.603-1.351-2.849-3.026
		c-0.378-0.599-0.887-0.662-1.382-0.219c-0.494,0.44-0.42,0.982-0.041,1.491c0.061,0.463,0.121,0.926,0.182,1.39
		c-0.504-0.224-1.01-0.447-1.516-0.67c-2.02-4.799-3.086-9.604-0.086-14.432C35.503,110.386,36.469,109.926,37.435,109.467z"/>
	<path fill-rule="evenodd" clip-rule="evenodd" fill="#696868" d="M61.352,113.462c-0.508,3.062-2.87,5.19-4,7.95
		c-0.711,1.739-1.507,3.489-2.566,5.025c-0.748,1.085-0.619-0.248-0.843-0.562c0.337-4.927,0.318-9.852-0.092-14.773
		c0.248-2.061,1.992-3.864,1.016-6.154c-0.186-0.436,0.119-0.912,0.647-1.071c0.517-0.157,0.942,0.039,1.161,0.503
		c0.338,0.715,0.088,1.686,0.95,2.177c1.529,1.616,0.596,3.653,1.057,5.606c0.056-1.017-0.141-2.494,1.221-2.161
		C61.557,110.404,61.863,111.883,61.352,113.462z"/>
	<path fill-rule="evenodd" clip-rule="evenodd" fill="#76716B" d="M79.965,97.089c-0.307-0.16-0.683-0.253-0.911-0.49
		c-3.68-3.822-2.5-16.622,2.208-20.271c0.969,6.875,2.223,13.455,0.08,20.114c-0.772-0.759-0.769-1.557-0.219-2.427
		C80.357,94.881,80.961,96.316,79.965,97.089z"/>
	<path fill-rule="evenodd" clip-rule="evenodd" fill="#74716B" d="M92.804,64.074c0.01,2.217,0.238,4.451-0.535,6.604
		c-2.115,4.506-4.421,8.929-5.956,13.687c-2.98-5.726-2.619-11.957-2.744-18.116c1.25,1.173,0.338,2.764,0.966,4.557
		C87.339,68.471,89.403,65.374,92.804,64.074z"/>
	<path fill-rule="evenodd" clip-rule="evenodd" fill="#47494A" d="M86.313,84.366c0.022-5.417,2.708-9.674,5.956-13.687
		c0.219,1.162,0.44,2.324,0.66,3.486c0.472,2.638,0.493,5.275-0.011,7.911c-0.045,0.665-0.09,1.328-0.135,1.991
		c-1.017,0.761-1.167,1.914-1.372,3.042C87.876,89.605,87.183,86.822,86.313,84.366z"/>
	<path fill-rule="evenodd" clip-rule="evenodd" fill="#3A383A" d="M79.965,97.089c-0.036-1.269-0.097-2.544,1.132-3.794
		c0.095,1.225,0.17,2.187,0.246,3.147C81.044,97,80.654,97.364,79.965,97.089z"/>
	<path fill-rule="evenodd" clip-rule="evenodd" fill="#F7F6F6" d="M61.352,113.462c-0.423-1.075-0.847-2.149-1.29-3.271
		c-1.494,0.819-0.281,2.408-1.472,3.413c-1.042-2.326-0.388-4.792-0.966-7.047c-0.041-2.389-0.081-4.778-0.125-7.168
		c-0.029-1.544,0.064-2.985,2.215-2.803c1.049,3.489,1.025,7.241,2.723,11.101c0.361-3.327,0.672-6.179,0.981-9.03
		c1.41,2.525,0.305,5.261,0.663,7.874c0.2,1.454-0.552,3.062,0.7,4.345c0.251,1.163,0.735,2.536-0.235,3.387
		C63.377,115.285,62.433,113.745,61.352,113.462z"/>
	<path fill-rule="evenodd" clip-rule="evenodd" fill="#757069" d="M74.111,84.251c0.019,5.508,0.084,11.017,0.023,16.524
		c-0.016,1.388-0.051,3.409-1.661,3.589c-1.829,0.205-2.229-1.816-2.697-3.285c-0.623-1.955-0.984-3.952-0.714-6.017
		C70.932,91.545,72.762,88.011,74.111,84.251z"/>
	<path fill-rule="evenodd" clip-rule="evenodd" fill="#77726B" d="M110.788,60.323c-0.413,3.174-0.827,6.347-1.24,9.52
		c-2.434,3.379-3.05,0.408-3.54-1.194c-1.239-4.066-0.938-8.299-0.848-12.491c2.358,2.264,3.264,1.05,3.607-1.507
		C110.128,56.296,110.077,58.445,110.788,60.323z"/>
	<path fill-rule="evenodd" clip-rule="evenodd" fill="#75716A" d="M120.076,52.562c0.435,2.924-0.035,5.714-1.254,8.389
		c-1.021,2.24-2.399,2.869-4.335,0.955c-0.637-1.85-1.571-3.619-1.526-5.652c0.028-0.16,0.056-0.321,0.083-0.482
		c1.189-2.687,3.96-2.474,6.135-3.358C119.5,52.318,119.8,52.37,120.076,52.562z"/>
	<path fill-rule="evenodd" clip-rule="evenodd" fill="#74706C" d="M120.076,52.562c-0.185-0.001-0.371-0.002-0.556-0.002
		c-1.27-0.583-0.8-1.485-0.446-2.396c-0.633,1.509-1.487,3.056-3.332,1.947c-1.504-0.903,0.154-1.411,0.649-2.014
		c-2.503,1.191-2.295,3.892-3.273,5.933c0,0-0.159,0.223-0.159,0.223c-0.732-1.901-0.912-3.86-0.608-5.868
		c3.778-2.659,6.691-5.904,7.284-10.725c-0.148,3.124,0.253,6.208,0.693,9.287C120.244,50.152,120.16,51.356,120.076,52.562z"/>
	<path fill-rule="evenodd" clip-rule="evenodd" fill="#77716A" d="M128.808,48.841c-1.196,1.667,0.022,4.995-3.489,5.066
		c-3.389-4.477-3.214-9.313-1.443-14.311c2.2-0.676,1.568-3.22,2.934-4.447c0.425,1.061,0.849,2.122,1.273,3.184
		C128.324,41.836,128.565,45.339,128.808,48.841z"/>
	<path fill-rule="evenodd" clip-rule="evenodd" fill="#807D77" d="M101.539,67.68c-0.011,4.14,0.835,8.378-1.423,12.256
		c-3.41-1.094-2.524-4.072-2.855-6.516c1.032,0.708,1.391,0.042,1.799-0.793c1.219-2.491,1.693-5.137,1.782-7.876
		C101.675,65.584,101.104,66.752,101.539,67.68z"/>
	<path fill-rule="evenodd" clip-rule="evenodd" fill="#4F5152" d="M126.81,35.15c-0.661,1.691,1.372,5.16-2.934,4.447
		c-0.447-2.09,0.118-4.056,1.503-5.489C126.879,32.556,126.898,33.994,126.81,35.15z"/>
	<path fill-rule="evenodd" clip-rule="evenodd" fill="#E5E3E2" d="M92.917,82.076c0.003-2.637,0.007-5.274,0.011-7.911
		C94.056,76.804,94.045,79.441,92.917,82.076z"/>
	<path fill-rule="evenodd" clip-rule="evenodd" fill="#797570" d="M139.51,22.421c1.393,2.74,1.196,5.395-0.429,7.972
		c-1.376,0.559-1.388,1.551-0.859,2.714c0.059,0.497,0.118,0.993,0.177,1.49c-0.449,0.032-1.188,0.247-1.304,0.065
		c-1.154-1.811-0.084-10.234,1.453-11.8C138.779,22.627,139.186,22.564,139.51,22.421z"/>
	<path fill-rule="evenodd" clip-rule="evenodd" fill="#464443" d="M144.64,29.476c-0.59,0.26-1.323,1.131-1.79,0.212
		c-0.528-1.044-0.261-2.112,1.165-2.42C145.611,27.611,145.151,28.536,144.64,29.476z"/>
	<path fill-rule="evenodd" clip-rule="evenodd" fill="#756E66" d="M144.64,29.476c0.144-0.835,0.197-1.645-0.625-2.207
		c0.443-0.441,0.887-0.882,1.33-1.323c0.066,0.958,0.132,1.916,0.199,2.874c-0.122,0.229-0.243,0.459-0.363,0.689
		C145,29.504,144.82,29.493,144.64,29.476z"/>
	<path fill-rule="evenodd" clip-rule="evenodd" fill="#888480" d="M35.959,124.558c-0.61-0.54-0.92-1.209-0.227-1.811
		c0.703-0.61,1.303-0.275,1.649,0.539C36.136,122.848,35.99,123.639,35.959,124.558z"/>
	<path fill-rule="evenodd" clip-rule="evenodd" fill="#4D4D4B" d="M138.222,33.107c-1.126-1.044-1.017-2.584-0.398-3.47
		c0.94-1.345,0.961,0.231,1.257,0.756C138.795,31.297,138.509,32.202,138.222,33.107z"/>
	<path fill-rule="evenodd" clip-rule="evenodd" fill="#ABA8A4" d="M146.963,16.589c-0.036-0.252-0.072-0.505-0.107-0.757
		c0.211,0.256,0.421,0.513,0.631,0.77c-0.001,0-0.263-0.014-0.263-0.014L146.963,16.589z"/>
	<path fill-rule="evenodd" clip-rule="evenodd" fill="#D9D3CF" d="M569.698,693.287c0.184-0.221,0.366-0.439,0.548-0.658
		c1.325,1.211,2.113,2.757,2.747,4.397c-0.229,0.257-0.456,0.511-0.685,0.767C571.438,696.291,570.568,694.789,569.698,693.287z"/>
	<path fill-rule="evenodd" clip-rule="evenodd" fill="#706C6B" d="M113.119,56.03c-0.944-3.744,1.414-5.661,4.226-7.48
		c0.424,1.515-0.931,2.121-1.681,3.062c2.685,0.733,2.619-1.534,3.48-2.789c0.963,1.21-0.564,2.602,0.376,3.736
		C117.788,54.458,114.718,53.888,113.119,56.03z"/>
</g>
<g>
</g>
<g>
</g>
<g>
</g>
<g>
</g>
<g>
</g>
<g>
</g>
</svg>
