<svg xmlns="http://www.w3.org/2000/svg" width="590" height="720" viewBox="0 0 590 720" preserveAspectRatio="none"><g fill-rule="evenodd" clip-rule="evenodd"><path fill="#756E66" d="M221.04.72c-5.98 5.388-11.946 10.798-17.95 16.16-8.68 7.753-17.404 15.456-26.08 23.21-5.14 4.596-10.205 9.274-15.338 13.876-11.235 10.074-22.51 20.1-33.732 30.188-5.753 5.172-11.375 10.49-17.145 15.642-10.545 9.417-21.175 18.735-31.73 28.143-5.326 4.747-10.53 9.63-15.842 14.396-11.32 10.153-22.695 20.243-34 30.412-5.837 5.25-11.41 10.807-17.417 15.848C8.094 191.71 5.12 195.708.72 198 .72 133.256.74 68.512.648 3.768.644 1.145 1.22.648 3.788.65 76.204.737 148.623.72 221.04.72zM420.48 720.72c10.148-9.087 20.315-18.155 30.44-27.27 5.657-5.092 11.22-10.292 16.874-15.388 9.274-8.357 18.58-16.682 27.892-24.998 13.204-11.79 26.443-23.54 39.634-35.346 5.585-4.998 11.052-10.13 16.632-15.134 10.97-9.834 22.003-19.6 32.96-29.452 1.68-1.51 3.084-3.33 5.488-4.683v152.27H420.48z"/><path fill="#454749" d="M87.142 90.692c.646 1.23 1.964.482 2.992 1.028-2.447 6.516-6.005 12.458-9.458 18.455.032 2.513-1.905 4.034-3.162 5.797-2.726 3.823-5.122 7.98-9.143 10.713-9.45 9.79-21.066 16.375-33.085 22.366-2.766 2.004-5.945 2.784-9.27 3.143-2.647.598-5.33.594-8.02.432l-.726.03c-1.2.515-2.412.5-3.632.078-1.3-.315-.933-.686-.044-1.1 2.15-1.005 4.624-1.17 6.62-2.568 2.326-1.732 5.078-2.688 7.778-3.35 3.912-.96 7.29-2.725 10.462-5.062 3.642-1.31 6.863-3.342 9.848-5.778.364-.363.775-.66 1.23-.894 5.778-3.193 9.783-8.314 14.02-13.126 3.96-4.494 6.94-9.708 9.98-14.853 1.015-1.54.86-3.306 1.055-5.025.157-1.405-.29-3.126 1.463-3.977 4.9 2.68 6.902 1.623 7.73-4.092.12-.826.14-1.67.353-2.48.203-.772.22-1.898 1.29-1.864 1.18.04 1.986.743 1.72 2.13z"/><path fill="#FBFBFA" d="M49.667 134.63c-.252.204-.504.41-.758.613-2.196 1.153-4.114 3.635-7.003 1.46-5.767-3.388-9.893-8.06-11.268-14.77-.908-4.423-.29-8.503 3.228-11.748.748-.247.92.258 1.062.808-1.813 4.61-1.27 9.176.266 13.72.167 1.515.443 2.99 1.52 4.176 1.703 2.262 3.213 4.777 6.48 5.02 4.217-.2 5.567-3.54 7.2-6.57 1.734-6.983-.24-13.695-1.49-20.46-.226-1.227-1.027-.92-1.914-.788-6.353.946-10.54-2.417-11.03-8.872-.295-3.93.62-7.575 2.88-10.845 1.48-.073 1.372 1.088 1.57 2.012-.32 2.608-.77 5.21-.513 7.864.255 2.658 1.416 4.81 3.58 6.368.802.577 1.75.863 2.697.292.888-.536.674-1.44.643-2.268-.153-4.042-1.207-8.098.186-12.122.416-.692.796-1.646 1.763-1.352.812.248.47 1.197.537 1.862.08.803-.19 1.65.318 2.397l1.602 9.83c.316.89 1.74.613 1.84 1.736.495 2.91 1.048 5.81 1.763 8.68.374 4.524.4 9.045.01 13.565-.955 3.553-1.48 7.345-5.173 9.39z"/><path fill="#FBFBF9" d="M58.243 19.48c2.61 10.482-3.417 19.47-14.14 20.566-2.85.292-3.68 1.04-3.85 3.916-.572 9.73-9.86 16.41-19.334 14.187-.26-.063-.444-.448-.858-.89.65-.146 1.06-.3 1.478-.32 9.347-.445 14.664-5.488 15.744-14.785.206-1.768-.348-2.593-1.976-3.172-2.372-.844-4.578-2.066-6.476-3.77-.145-.668.27-.906.8-1.055 2.392-.097 4.41 1.647 6.81 1.47-.928-1.927-1.74-3.822-1.66-5.976.19-.515.456-.927 1.108-.802 1.384 1.532 2.562 3.287 3.064 5.228.743 2.867 2.544 2.944 4.876 2.613 8.402-1.192 13.333-6.808 13.71-15.718-.288-.743-.64-1.516.703-1.493z"/><path fill="#F9F9F8" d="M87.142 90.692c-.562-.59-1.124-1.182-1.96-2.063-.913 2.84-.133 5.632-1.33 8.105-1.782 3.682-5.11 4.045-7.59.708-1.794-.918-2.344-2.49-2.36-4.382-.03-3.17-.017-6.342-.02-9.508-.04-3.513 1.138-6.582 3.964-8.68 1.846-1.37 1.44-3.342 2.06-5.038.02-1.75.016-3.5.063-5.25.033-1.23.332-2.496 1.727-2.683 1.608-.215.867 1.65 1.647 2.25.758.487.994 1.25 1.11 2.08-.084 5.838.278 11.618 2.352 17.157.6 2.678 2.302 3.745 4.978 3.4.505.276.8.64.51 1.242-.71 2.835-2.894 2.82-5.152 2.662z"/><path fill="#666667" d="M79.906 69.835c.925 2.486 1.546 4.495-1.876 6.056-2.35 1.072-3.112 4.013-3.21 6.744-.38.614-.272 1.358-.53 2.006-.623 4.06-1.916 7.786-5.22 10.517-1.073-.94-1.18-2.287-1.51-3.552-.194-.737.004-1.944-1.156-1.875-.967.058-1.076 1.152-1.302 1.943-.695 2.437-.906 4.93-.786 7.462-.083 2.14-.824 4.19-.77 6.352.02.915-.05 2.155-1.127 2.355-1.238.23-1.392-1.096-1.645-1.926-.9-2.952-1.644-5.946-1.59-9.073.12-.402.314-.764.58-1.088 2.434-2.673 3.398-6.175 5.153-9.235 3.55-6.194 7.143-12.304 12.614-17.067.5-.436.7-1.216 1.072-1.895 1.042.505.27 1.907 1.302 2.277z"/><path fill="#FEFCFD" d="M91.443 11.517c10.06.003 20.118-.02 30.176.042.992.005 2.824-.816 2.798 1.082-.025 1.855-1.85 1.05-2.847 1.052-20.355.054-40.712.053-61.068.004-.998-.002-2.826.783-2.798-1.1.028-1.853 1.842-1.04 2.847-1.046 10.298-.063 20.596-.038 30.893-.035z"/><path fill="#F6F6F4" d="M12.323 91.098c0-10.186-.022-20.372.032-30.556.006-1.04-.708-2.84 1.07-2.9 1.857-.062 1.155 1.763 1.157 2.78.044 20.37.047 40.742.004 61.113-.002 1.03.72 2.82-1.07 2.885-1.903.07-1.147-1.77-1.154-2.766-.062-10.185-.038-20.37-.04-30.556z"/><path fill="#756F68" d="M35.212 29.622c.634 2.223 2.794 5.21 1.426 6.495-1.683 1.584-4.482-.664-6.742-1.486-.11-.04-.227-.062-.34-.093-3.093-.95-4.565-3.81-6.796-5.774-.9-.918-1.176-2.166-1.738-3.265-.192-.443.02.122-.132-.333-.533-1.616-2.2-3.28-.808-4.93 1.58-1.87 3.483-.334 5.22.214.978.374 1.885.892 2.768 1.452 1.516.75 2.69 1.877 3.6 3.292l.74.744c1.36.904 2.61 1.89 2.802 3.684z"/><path fill="#F9F8F6" d="M107.21 48.272c.492-2.157.024-4.276-.304-6.39-.24-1.553-.346-3.087.088-4.613.27-.946.64-1.914 1.82-1.895 1.392.02 1.21 1.195 1.326 2.107.282 2.21.08 4.525 1.4 6.512 1.554 1.81 1.495 4.074 1.763 6.245.076 1.916-.242 3.857.354 5.744.326 2.1 1.336 4.047 1.404 6.208-.26 1.165-.8 1.86-2.112 1.248l.047-.014c-.485-1.41-2.276-1.477-2.872-2.78-1.007-1.868-1.13-4.05-2.123-5.927-.835-2.078-1.314-4.202-.79-6.448z"/><path fill="#F8F7F6" d="M132.318 63.82c2.04-6.087.307-11.897-1.313-17.715-.54-.473-.686-1.107-.742-1.786.024.88-.135 1.723-.52 2.52l-.237 2.802c-.78.11-1.047-.44-1.304-1.008-.277-3.335-1.04-6.628-.93-10 .31-1.634-.117-3.252-.105-4.875.017-2.37.873-2.7 3.305-1.4.168.038.333.085.496.142.92.762 1.358 1.648.723 2.81-.3 4.674 1.818 8.864 2.708 13.3.856 4.266 1.525 8.502.673 12.82-.248 1.262-.566 2.6-1.707 3.474-.868.14-1.217-.222-1.045-1.085z"/><path fill="#666667" d="M83.57 66.25l-.228-2.1c4.185-2.45 7.817-5.82 12.55-7.377 1.162-.383 2.272-.653 3.475-.61 1.018 1.586-.308 2.63-.983 3.73-.66 1.073-1.57 1.986-1.663 3.334-1.393.232-2.924.125-3.845 1.548-3.142 1.778-5.175 5.003-8.383 6.81-1.225-1.846-.025-3.755-.923-5.335z"/><path fill="#F7F7F6" d="M110.172 71.315c-2.284 3.384-3.604 3.226-6.812-.864-.767.93-.106 2.03-.412 2.982-2.772-1.063-1.067-3.788-2.058-5.513-.28-1.126-.423-2.285-.797-3.39-.53-3.1-1.22-6.218.867-9.068 1.03-.675 1.954-1.618 3.366-1.307 1.124.23 1.415 1.112 1.62 2.06.343 3.558-.212 7.164.638 10.71.413 1.722 1.074 2.902 3.086 2.648.88.377 1.022.965.502 1.742z"/><path fill="#F9F8F6" d="M56.21 17.256c-3.22-4.95-9.44-4.538-11.822-.913-1.272 1.937-1.7 3.976-.472 6.084 1.224 2.104 3.103 2.408 5.296 1.77 0-.257.09-.607-.014-.68-1.564-1.088-2.477-2.425-1.12-4.177.843-1.085 2.186-1.098 3.23-.285 1.69 1.315 1.216 3.074.335 4.544-1.574 2.63-4.04 3.245-6.857 2.302-2.898-.97-4.693-4.11-4.126-7.162.647-3.49 2.58-5.843 6.17-6.665 3.97-.91 7.254.54 10.045 4.49.315.748-.04.85-.665.69z"/><path fill="#F7F6F5" d="M130.472 32.358c-1.866-.775-2.926-.775-2.424 1.85.25 1.297.885 2.754.034 4.126-1.52-.218-1.342-1.633-1.827-2.563-2.32.73-1.133 2.882-1.754 4.288-1.56 4.877-.402 9.542 1.096 14.185-.644 1.112-1.524.98-2.477.477l-.725-.708c-3.015-.596-2.036-3.385-2.862-5.188-.338-2.91-1.74-5.776-.375-8.76l.463-.382c1.008-2.112 1.815-4.352 3.07-6.304 1.784-2.777 5.803-3.177 7.782-1.02z"/><path fill="#F6F5F5" d="M92.804 64.074c1.014-1.33 2.017-2.73 3.652-.667 1.92 2.866.677 6.29 1.652 9.318.077 2.484-.016 5.03 2.407 6.675.396.41.676.854.416 1.45-.69 1.063-1.863 1.522-2.728.768-4.332-3.78-3.656.655-4.475 2.64-.088.214-.103.46-.152.69-.706.165-1.015-.277-1.26-.822-.225-.743-.183-1.49-.03-2.238.49-2.533.652-5.06-.142-7.57-.465-1.282-.865-2.573-.59-3.963.542-2.068-.103-4.375 1.25-6.28z"/><path fill="#F9F8F5" d="M13.738 53.26c-2.142-3.236-2.165-6.538-.032-9.726 1.75-2.616 4.36-3.626 7.478-3.248 3.01.365 4.716 2.273 5.356 5.043.56 2.417-.212 4.56-2.467 5.84-1.637.93-3.43 1.405-4.77-.507-.952-1.356-.41-2.6.893-3.327 2.105-1.175 2.986.445 3.964 2.152 1.256-2.452.954-4.443-1.204-5.92-2.28-1.562-5.932-.68-7.682 1.71-1.636 2.234-1.492 4.682-.813 7.185.345.797-.072.903-.722.796z"/><path fill="#EFEDEB" d="M144.037 39.66c-.653 2.43-2.566 2.99-4.71 3.03-2.123.04-3.232-1.484-3.956-3.163-2.248-5.215-2.132-10.52.195-15.632.82-1.8 2.045-4.103 4.885-2.384.26.563-.01.987-.353 1.395-3.35 3.284-2.86 7.142-1.648 11.098.29.142.534.335.75.572.145.326.226.673.158 1.017-.24 1.21-1.024 2.445.232 3.557 1.47 1.302 2.56-.302 3.833-.504.545.13.975.334.614 1.014z"/><path fill="#666566" d="M25.92 151.207c3.338.225 6.09-2.094 9.365-2.156-1.493 4.12-5.354 5.424-8.753 7.155-3.226 1.644-6.64 2.917-9.973 4.352-.95.814-2.106 1.02-2.75-.08-.603-1.03.485-1.81 1.305-2.142 4.09-1.654 7.172-4.8 10.804-7.128z"/><path fill="#78736C" d="M143.465 38.958c-1.09 1.332-2.196 2.615-4.135 1.34-2.613-1.72-1.534-3.735-.47-5.752 1.718-3.872 1.793-8.12 2.792-12.158 1.586.803.518 2.415 1.148 3.657l2.513-.85c.262.2.373.464.337.79-.267.75-.855 1.25-1.387 1.79-1.123 1.538.614 1.014 1.045 1.432.295.185.505.435.655.745.452 2.142-.955 4.127-.515 6.266.018.122.03.244.032.366-.714.754-1.17 1.73-2.015 2.374z"/><path fill="#484848" d="M97.26 73.42c-.637-3.307-1-6.637-.804-10.012-.776-3.117 2.642-4.55 2.912-7.246l1.592-.7c-.886 3.086-.168 6.192-.118 9.29.692 2.84.562 5.608-1.003 8.142-.578.932-1.33 2.303-2.58.527z"/><path fill="#484849" d="M112.35 50.385l-.808-6.39c1.608-2.656 4.768-3.37 6.87-5.453.74-.732.974.54 1.21 1.14l.013-.022c-.405 3.716-.962 7.343-4.532 9.584-.87.546-1.506 1.542-2.752 1.14z"/><path fill="#F3F1EE" d="M39.64 88.65c-.094-.82.1-1.738-.797-2.273 2.192-4.135 5.49-6.764 10.205-7.397 1.524-.205 2.873.252 3.704 1.625 1.07 1.77-.945 1.768-1.56 2.57-1.907 2.492-1.302 5.455-1.568 8.255-.965-.78-.487-1.898-.693-2.86-.395-1.847-.932.144-1.408-.01-1.71-2.32.247-4.227.71-6.52-2.607.032-4.156 1.552-5.57 3.473-.854 1.16-1.087 2.996-3.02 3.136z"/><path fill="#69696A" d="M50.396 127.34c-.2 5.094-2.856 7.517-7.2 6.573-1.127-1.548.77-2.13 1.24-2.817 2.33-3.397 3.787-7.217 5.96-11.698v7.943z"/><path fill="#F1EFEA" d="M40.395 109.393c4.156 3.215 6.356 10.143 4.768 15.017-1.48 4.544-4.744 5.063-9.006 1.432l-.44-.308c-.29-.485-.36-1.006-.267-1.557.324-1.02.964-1.446 2.026-1.075 1.03.827 1.48 2.795 3.362 1.984 1.627-.702 1.97-2.31 2.113-3.893.25-2.736-.704-5.167-2.017-7.497-.632-1.12-1.76-2.008-1.68-3.48.203-.534.47-.948 1.142-.623z"/><path fill="#726F6C" d="M25.92 151.207c.85 1.636-.652 1.85-1.49 2.13-2.126.708-3.267 2.73-5.247 3.63-1.785.812-3.45 1.88-5.257 2.885.98 1.01 1.855.587 2.632.707-1.198 2.713-3.348.944-5.148 1.36 1.078-5.08 6.433-5 9.162-7.582-.693-1.618-2.59.29-2.576-1.71 2.508-1.22 5.34-.622 7.923-1.42z"/><path fill="#787470" d="M59.765 95.754l-.05.83c-1.48 1.677-.99 3.75-1.126 5.688-.09 1.277.065 2.58-.457 3.8-1.52.164-2.526.72-2.68 2.52-.08.94-.38 2.12-1.602 2.51-.712-2.71-1.752-5.367-1.368-8.26 2.176-2.425 2.5-5.643 3.64-8.512.73 1.715 2.104 1.78 3.643 1.424z"/><path fill="#74716D" d="M38.878 141.11c-5.444 4.478-12.242 5.778-18.666 7.956-.85-.148-1.583-.844-.422-1.13 3.245-.794 5.937-3.005 9.392-3.28 2.78-.22 4.954-2.06 7.238-3.53 1.082-.695 1.74-2.01 3.18-2.167.85 1.082.052 1.613-.722 2.15z"/><path fill="#494A4A" d="M105.16 56.158l-.835-2.002c-2.002-3.415 1.813-3.976 2.886-5.883.52 2.127 1.04 4.252 1.557 6.378.622 1.418.353 2.527-1.148 3.157-1.63.683-2.008-.55-2.46-1.65z"/><path fill="#74716E" d="M68.37 126.686c4.597-5.135 8.646-10.678 12.305-16.51 1.928 3.58-1.92 4.922-3.117 7.082-1.89 3.417-5.01 6.15-7.568 9.208-.54.645-.95 1.06-1.62.22z"/><path fill="#F1EEEA" d="M25.88 21.073c-1.82-.136-3.986-2.062-5.284-.49-1.152 1.392.752 3.46 1.03 5.29.165.175.235.363.213.562-.023.205-.057.308-.103.308-.305.163-.597.15-.875-.065-1.015-2.51-2.037-5.016-3.043-7.53-.704-1.755.093-2.184 1.644-1.718 2.257.677 4.504 1.406 6.445 2.82.197.19.258.374.184.556-.073.177-.144.267-.214.267z"/><path fill="#ECE9E3" d="M120.328 48.947c1.323 1.43-.172 4.01 2.067 5.064-1.945 1.178-.876 3.23-1.352 4.837-.768 2.593-1.542 5.103-4.446 5.965-1.424.422-2.853.2-3.648-1.373.937-.086 1.5-.547 1.535-1.536 2.743.145 3.954-1.436 4.514-3.882.455-1.988.275-3.983.29-5.985.06-1.128-.008-2.298 1.038-3.09z"/><path fill="#E9E7E4" d="M141.652 22.387c.66 4.417.743 8.703-2.79 12.158-.152.033-.306.05-.462.052-.52-.313-.75-.795-.808-1.378-.095-1.14.316-2.165.733-3.186 1.48-2.368.667-5.095 1.183-7.613l.94-.91 1.204.877z"/><path fill="#E7E5E1" d="M56.12 94.33c.503 3.572-.47 6.512-3.638 8.514-.32-.606-1.278-.705-1.256-1.583 3.398-1.647 3.822-3.91 1.46-7.933 1.524-.932 2.404.303 3.435 1.004z"/><path fill="#656565" d="M38.878 141.11l.72-2.15 2.31-2.255c2.507.35 4.812-.282 7-1.46-2.88 2.746-6.03 5.032-10.03 5.866z"/><path fill="#F8F4F4" d="M110.172 71.315l-.624-1.472c-.625-3.31-1.623-6.665 1.24-9.52.63 1.11 2.465 1.363 2.208 3.104-.94-.643-1.322-.515-1.494.74-.33 2.397-.08 4.918-1.33 7.148z"/><path fill="#E9E5DE" d="M100.93 80.85l-.813-.913c.157-4.123.065-8.274 1.422-12.257 1.74 1.606-.246 4.125 1.408 5.752.057 2.672.03 5.32-2.017 7.42z"/><path fill="#E6E3DD" d="M123.12 54.72c.81-.06 1.716.136 2.2-.813 1.79-1.256 1.342-4.053 3.488-5.066.232.268.466.535.698.8-.216 5.4-2.163 6.948-6.387 5.08z"/><path fill="#DAD6D2" d="M145.346 25.946c-.01-.25-.02-.502-.032-.752.15-.65-.17-1.663.784-1.75.728-.07.765.78.755 1.368-.042 2.617.48 5.274-.54 7.824-1.16-1.027.187-2.84-1.194-3.798-.58-1.017-.23-1.96.226-2.892z"/><path fill="#494445" d="M154.742 26.583c-1.688.533-3.366 1.1-5.068 1.58-.663.188-1.665 1.073-1.893-.413-.147-.967.737-1.01 1.447-1.116 1.628-.24 3.253-.5 4.88-.752.727-.233.82.107.635.7z"/><path fill="#4A494C" d="M131.69 35.313c-.24-.937-.48-1.874-.722-2.81.3-.904.96-2.156 1.744-1.02.784 1.138 1.374 3.113-1.02 3.83z"/><path fill="#E8E4DE" d="M23.166 28.48l6.39 6.058-.723.674c-2.448-1.37-4.272-3.376-5.793-5.69-.324-.393-.282-.74.126-1.042z"/><path fill="#A3A19E" d="M146.055 18.508l.144-1.993c.243-.184.51-.325.803-.418.292-.107.592-.18.9-.224.625 0 1.247-.286 1.877-.028.48.934.53 1.865-.016 2.792l-.208.115c-1.2.396-2.395.704-3.5-.244z"/><path fill="#EDE8E3" d="M145.544 28.82c1.14 1.093.297 2.585.77 3.814-.06 1.25.003 2.528-.866 3.582-1.524-2.18.717-4.507-.267-6.707-.053-.323.07-.553.364-.69z"/><path fill="#7C7670" d="M154.742 26.583l-.635-.7c.384-.237.745-.607 1.155-.675.72-.118 1.51-1.032 2.174-.055.19.277.087.966-.14 1.278-.74 1.015-1.635 1.27-2.554.153z"/><path fill="#EBE8E2" d="M132.318 63.82l1.045 1.085c-1.29 2.174-3.15 2.092-5.185 1.31-.05-1.417.86-.973 1.612-.833l2.528-1.56z"/><path fill="#726F6C" d="M13.64 152.734c1.21-.026 2.42-.052 3.63-.08-1.985.675-3.97 1.35-6.258 2.126.464-1.955 2.146-1.004 2.627-2.046z"/><path fill="#EDE8E1" d="M13.738 53.26l.722-.796 3.63 3.646c-.16.33-.422.534-.772.632-1.625-.717-2.88-1.815-3.58-3.483z"/><path fill="#D2CDC8" d="M34.538 110.845l-.67-.66c1.22-1.326 2.543-2.362 4.507-1.642-.05.533-.31.956-.675 1.33-.946.67-1.806 1.63-3.162.972z"/><path fill="#9B9B96" d="M129.745 46.838c-.2-1.23-.322-2.458.08-3.77 1.132.788 1.222 1.886 1.18 3.036l-1.26.734z"/><path fill="#E8E3DE" d="M35.212 29.622l-2.804-3.683c2.206-.28 2.645 1.553 3.483 2.91l-.678.772z"/><path fill="#DAD3CD" d="M31.67 25.195c-1.21-.95-2.422-1.9-3.633-2.853.15-.32.395-.535.73-.643 1.28.905 3.192 1.286 2.902 3.495z"/><path fill="#E2DFDC" d="M56.21 17.256l.666-.69c.87.777 1.342 1.74 1.367 2.913l-.7 1.49c-.445-1.237-.89-2.475-1.333-3.714z"/><path fill="#E5E3E2" d="M92.783 84.067l.792.883c-.046 1.185-.47 2.213-1.283 3.08l-.88-.92c-.754-1.56-.223-2.542 1.37-3.043z"/><path fill="#888480" d="M36.714 128.89c-1.254-.88-1.875-2.13-2.09-3.612.787-.412 1.016.438 1.517.67l.016-.105c.187 1.015.372 2.03.558 3.048z"/><path fill="#D3D2D0" d="M149.764 18.637c-.114-.96.127-2.014-.727-2.78-.106-.06-.21-.117-.318-.174-.143-.214-.16-.436-.035-.665 2.366.188 2.545.788 1.08 3.62z"/><path fill="#E0DAD6" d="M143.465 38.958c.383-1.036.586-2.225 2.015-2.374-.133 1.188-.376 2.325-1.442 3.075l-.573-.702z"/><path fill="#E2DBD6" d="M23.166 28.48l-.126 1.042c-.29-.24-.58-.48-.87-.722-.442-.525-1.29-.895-.692-1.815l.15-1.112c.51.87 1.024 1.738 1.538 2.607z"/><path fill="#D2CDC7" d="M129.79 65.382l-1.61.833c-.748-.117-1.617-.768-1.253-1.237.96-1.24 1.9.155 2.864.404z"/><path fill="#E7E2DC" d="M28.768 21.7l-.73.643-2.158-1.27.03-.825 2.858 1.452z"/><path fill="#756F68" d="M21.478 26.984l.69 1.815c-1.36-.14-2.047-.692-1.306-2.124.214.087.42.19.616.308z"/><path fill="#FBF6F1" d="M17.318 56.742c.257-.21.514-.42.77-.632.565.123 1.524.288 1.196.912-.644 1.224-1.308-.054-1.966-.28z"/><path fill="#E2DED9" d="M37.435 109.467l.94-.923c.776.038 1.554.072 2.02.85-.268.263-.536.525-.804.79-.936.416-1.598.01-2.155-.717z"/><path fill="#E6E4E1" d="M146.055 18.508c1.168.08 2.335.163 3.502.244-1.244 1.006-2.44 1.35-3.502-.244zM149.037 15.856c-.382.53-.872.837-1.552.746-.09-.215-.244-.356-.468-.423l-.105-.31c.192-1.043.975-.898 1.71-.848-.073.397.213.612.438.856l-.023-.022z"/><path fill="#FCF9F5" d="M146.963 16.59l-.765-.075c.02-.455.292-.63.712-.645l-.055-.038c.16.148.23.31.21.486-.023.18-.057.27-.102.27z"/><path fill="#807F7C" d="M149.06 15.877c-.527-.09-.62-.402-.44-.856 0 0 .068 0 .066-.002l.374.86z"/><path fill="#FCFBF9" d="M568.805 665.185c-7.688 1.82-12.395 7.435-12.856 15.173-.086 1.443.384 2.188 1.7 2.68 2.472.924 4.767 2.197 6.81 3.886.164.67-.245.918-.777 1.076-2.4.127-4.422-1.645-6.828-1.456.904 1.944 1.753 3.837 1.636 6.004-.2.517-.477.92-1.128.775-1.354-1.547-2.536-3.287-3.03-5.23-.722-2.848-2.506-2.952-4.846-2.63-8.628 1.19-13.718 7.235-13.668 16.34.3.776-.072.97-.767.883-2.76-10.73 3.49-19.49 14.82-20.69 1.584-.166 2.843.02 3.062-2.353 1.048-11.308 7.425-16.555 18.702-15.702-.314 1.846-2.077.397-2.83 1.245z"/><path fill="#F5F5F4" d="M578.658 630.717c-.002-10.063-.025-20.126.037-30.188.007-1.006-.73-2.844 1.147-2.794 1.804.048 1.08 1.854 1.08 2.88.048 20.365.046 40.73 0 61.095 0 1.018.715 2.833-1.15 2.785-1.808-.047-1.074-1.843-1.08-2.87-.054-10.304-.034-20.605-.034-30.908z"/><path fill="#FEFEFC" d="M501.816 710.632c-10.058 0-20.117.025-30.174-.038-.992-.006-2.835.794-2.773-1.11.06-1.837 1.883-1.005 2.875-1.008 20.355-.06 40.71-.062 61.065-.017.99 0 2.825-.794 2.764 1.118-.058 1.83-1.86 1.02-2.867 1.026-10.297.063-20.595.04-30.89.04v-.012z"/><path fill="#756F67" d="M558.063 692.547c-.61-2.23-2.786-5.204-1.408-6.504 1.676-1.58 4.478.64 6.72 1.497.11.042.23.06.344.088 2.857.97 4.55 3.374 6.585 5.356 1.055 1.645 2.184 3.25 2.745 5.156-.077 1.352 1.446 2.8-.055 4.028-1.737 1.42-3.407-.007-5.09-.377-.924-.533-1.886-1.002-2.79-1.574-1.615-.952-3.027-2.15-4.28-3.542.023-.14.04-.278.053-.417-1.336-.937-2.632-1.903-2.825-3.71z"/><path fill="#F8F6F4" d="M569.478 673.712c-2.594 2.57-.436 4.02 1.46 5.124 2.036 1.188 4.216.532 5.973-.86 2.01-1.59 2.718-3.837 2.286-6.356-.354-2.077-1.542-3.69-3.15-5.008-.096-.615-.026-1.044.754-.66 3.87 3.07 5.236 7.054 3.74 10.924-1.33 3.446-4.55 5.44-8.185 5.026-2.59-.296-4.524-1.62-5.354-4.1-.797-2.39-.734-4.72 1.726-6.304.83.54 1.065 1.284.752 2.214zM541.48 708.46c2.14.127 4.326.268 6.082-1.235 2.142-1.83 3.193-4.122 2.062-6.93-1.122-2.782-3.413-2.91-5.92-2.383-.374-.347-.442-.745-.208-1.195 2.79-1.66 5.335-.966 7.418 1.154 2.12 2.16 2.365 4.87 1.144 7.608-1.453 3.26-4.112 4.87-7.623 4.858-1.513-.005-3.1-.222-4.396-1.23.047-1.17.66-1.09 1.44-.647z"/><path fill="#F3F1EC" d="M567.406 701.064c.34.073.686.124 1.018.226 4.863 1.472 4.945 1.398 3.885-3.497-.353-.658.018-.9.59-1.027.563.186.713.672.852 1.168.286 2.302 2.98 5.56 1.593 6.363-2.49 1.44-5.42-.94-7.988-2.285-.32-.335-.303-.65.05-.948z"/><path fill="#F0EFED" d="M543.496 696.717c.07.398.138.797.207 1.195.256.37.434.854.78 1.09 1.404.96 1.815 2.18.904 3.62-.754 1.192-2.062 1.3-3.14.698-1.407-.787-1.65-2.157-1.085-3.682.462-1.242.982-2.406 2.334-2.92z"/><path fill="#F4F3F1" d="M569.478 673.712l-.752-2.213c.366-.296.69-.72 1.106-.86 1.522-.51 3.06-.806 4.17.825.826 1.214.493 2.33-.542 3.166-1.647 1.328-2.86.29-3.982-.918z"/><path fill="#756F67" d="M573.75 697.934c-.252-.303-.504-.605-.757-.906-1.318-1.17-2.052-2.77-3.06-4.17-.275-.837-1.685-1.154-1.093-2.387 1.773.007 3.546.01 5.318.02.9.01 1.73.182 1.768 1.31.023.748.166 1.728-1.088 1.52-.164-.028-.075-1.037-.33-1.18-.31-.17-.935-.015-1.29.21-.495.313-.95.85-.19 1.373 1.698 1.17.477 2.81.723 4.21z"/><path fill="#ECE7E1" d="M541.48 708.46c-.48.216-.962.434-1.44.648-2.747-1.3-4.327-3.506-4.99-6.424l.766-.882c.954 3.014 2.79 5.275 5.664 6.657z"/><path fill="#E8E2DD" d="M568.84 690.47c.47.72.94 1.44 1.406 2.16.394.698-.003.74-.548.657l-5.98-5.66c.248-.233.495-.47.74-.704 1.842.712 2.788 2.53 4.383 3.548z"/><path fill="#E9E6E2" d="M576.8 665.952l-.756.66c-2.26-1.25-4.73-1.437-7.24-1.428.943-.416 1.887-.83 2.83-1.245 1.94.108 3.706.667 5.165 2.012z"/><path fill="#D5D1CC" d="M560.835 696.675c1.7.723 3.04 1.95 4.41 3.14-.147.323-.396.536-.73.65-1.524-.975-3.347-1.658-3.68-3.79z"/><path fill="#E6E3DE" d="M558.063 692.547c.94 1.238 1.882 2.474 2.824 3.71-2.202.255-2.64-1.61-3.527-2.935.234-.258.47-.516.703-.775z"/><path fill="#EAE5E0" d="M564.516 700.464l.73-.65c.72.417 1.44.835 2.16 1.25-.018.316-.032.633-.05.948-.947-.517-1.893-1.033-2.84-1.548z"/><path fill="#746F67" d="M49.667 134.63c2.172-2.555 3.294-5.62 4.275-8.755 1.717-1.12 1.706-3.19 2.59-4.77 1.46-2.61 2.81-5.275 4.756-7.575 2-.224 2.985-1.232 2.548-3.335-.047-5.053.016-10.09.615-15.545 2.03.94 2.36 2.328 2.716 3.627 1.064 3.884 2.477 7.443 7.024 8.4-5.36 9.478-11.9 18.02-20.033 25.305-1.324 1.19-2.527 2.553-4.49 2.647z"/><path fill="#F6F5F4" d="M74.192 106.677c-3.36 1.08-5.018-.81-6.41-3.484-1.255-2.415-1.497-5.164-2.74-8.624-.952 6.127-.044 11.225-.26 16.304-1.887-.336-1.418-1.782-1.5-3.042-.202-3.065.748-6.11.138-9.176-.28-2.77.233-5.463.968-8.1.344-1.237.847-2.72 2.52-2.53 1.558.176 1.436 1.63 1.577 2.8.17 1.416.384 2.825.58 4.237 1.898 1.968.51 5.268 3.552 7.652 1.15-6.417-.195-12.626 1.495-18.463l.708-1.617c.022 3.053.147 6.11.03 9.158-.078 2.066.312 3.925 1.412 5.65-1.595 2.875.04 6.474-2.07 9.234z"/><path fill="#756F68" d="M39.64 88.65c1.818-2.72 3.092-5.927 6.44-7.283 1.195-.485 2.402-1.014 4.032-.51-1.37 2.428-2.936 4.782-2.59 7.703-.9 4.032-.053 8.016.315 12.017.12 1.307 1.186 2.934-.84 3.7-1.694.644-3.31.353-4.642-.957-3.604-3.543-4.24-7.87-3.273-12.602.142-.698.37-1.38.56-2.07z"/><path fill="#756E67" d="M37.435 109.467l2.156.716c3.393 3.773 5.143 8.04 3.828 13.16-.412 1.606-1.39 2.885-3.188 2.97-2 .092-2.603-1.352-2.85-3.027-.377-.6-.886-.662-1.38-.22-.495.44-.42.983-.042 1.492.06.463.12.926.182 1.39-.504-.224-1.01-.447-1.516-.67-2.02-4.8-3.086-9.604-.086-14.432l2.897-1.38z"/><path fill="#696868" d="M61.352 113.462c-.508 3.062-2.87 5.19-4 7.95-.71 1.74-1.507 3.49-2.566 5.025-.748 1.085-.62-.248-.843-.562.337-4.927.318-9.852-.092-14.773.25-2.06 1.993-3.864 1.017-6.154-.186-.436.12-.912.647-1.07.517-.158.942.038 1.16.502.34.715.09 1.686.95 2.177 1.53 1.616.597 3.653 1.058 5.606.056-1.017-.14-2.494 1.22-2.16 1.655.4 1.96 1.88 1.45 3.46z"/><path fill="#76716B" d="M79.965 97.09c-.307-.16-.683-.254-.91-.49-3.68-3.823-2.5-16.623 2.207-20.272.97 6.875 2.223 13.455.08 20.114-.772-.76-.77-1.557-.22-2.427-.765.866-.16 2.3-1.157 3.074z"/><path fill="#74716B" d="M92.804 64.074c.01 2.217.238 4.45-.535 6.604-2.116 4.506-4.422 8.93-5.957 13.687-2.98-5.726-2.62-11.957-2.744-18.116 1.25 1.172.337 2.763.965 4.556 2.804-2.335 4.868-5.432 8.27-6.732z"/><path fill="#47494A" d="M86.313 84.366c.022-5.417 2.708-9.674 5.956-13.687.218 1.16.44 2.323.66 3.485.47 2.638.492 5.275-.012 7.91l-.135 1.992c-1.017.76-1.167 1.914-1.372 3.042-3.534 2.495-4.227-.288-5.097-2.744z"/><path fill="#3A383A" d="M79.965 97.09c-.036-1.27-.097-2.545 1.132-3.795l.246 3.147c-.3.558-.69.922-1.378.647z"/><path fill="#F7F6F6" d="M61.352 113.462c-.423-1.075-.847-2.15-1.29-3.27-1.494.818-.28 2.407-1.472 3.412-1.042-2.326-.388-4.792-.966-7.047-.04-2.39-.08-4.778-.125-7.168-.03-1.545.063-2.986 2.214-2.804 1.05 3.49 1.025 7.24 2.723 11.1.36-3.326.672-6.178.98-9.03 1.41 2.526.306 5.262.664 7.875.2 1.455-.55 3.063.7 4.346.252 1.163.736 2.536-.234 3.387-1.17 1.022-2.113-.518-3.194-.8z"/><path fill="#757069" d="M74.11 84.25c.02 5.51.085 11.018.024 16.525-.016 1.388-.05 3.41-1.66 3.59-1.83.204-2.23-1.817-2.698-3.286-.623-1.956-.984-3.953-.714-6.018 1.87-3.517 3.7-7.05 5.05-10.81z"/><path fill="#77726B" d="M110.788 60.323l-1.24 9.52c-2.434 3.38-3.05.408-3.54-1.194-1.24-4.067-.938-8.3-.848-12.492 2.358 2.264 3.264 1.05 3.607-1.507 1.36 1.646 1.31 3.795 2.02 5.673z"/><path fill="#75716A" d="M120.076 52.562c.435 2.924-.035 5.714-1.254 8.39-1.02 2.24-2.4 2.868-4.335.954-.637-1.85-1.57-3.62-1.526-5.652.03-.16.057-.32.084-.482 1.19-2.687 3.96-2.474 6.135-3.358.32-.096.62-.044.896.148z"/><path fill="#74706C" d="M120.076 52.562l-.556-.002c-1.27-.583-.8-1.485-.446-2.396-.633 1.51-1.487 3.056-3.332 1.947-1.504-.902.154-1.41.65-2.013-2.504 1.19-2.296 3.892-3.274 5.933l-.16.223c-.73-1.9-.91-3.86-.607-5.868 3.78-2.66 6.692-5.904 7.285-10.725-.148 3.124.253 6.208.693 9.287l-.252 3.615z"/><path fill="#77716A" d="M128.808 48.84c-1.196 1.668.022 4.996-3.49 5.067-3.388-4.477-3.213-9.313-1.442-14.31 2.2-.677 1.568-3.22 2.934-4.448.425 1.06.85 2.12 1.273 3.183.24 3.503.482 7.006.725 10.508z"/><path fill="#807D77" d="M101.54 67.68c-.012 4.14.834 8.378-1.424 12.256-3.41-1.094-2.524-4.072-2.855-6.516 1.033.708 1.392.042 1.8-.793 1.22-2.49 1.693-5.137 1.782-7.876.833.834.262 2.002.697 2.93z"/><path fill="#4F5152" d="M126.81 35.15c-.66 1.69 1.372 5.16-2.934 4.447-.447-2.09.118-4.056 1.503-5.49 1.5-1.55 1.518-.113 1.43 1.043z"/><path fill="#E5E3E2" d="M92.917 82.076l.01-7.91c1.13 2.638 1.118 5.275-.01 7.91z"/><path fill="#797570" d="M139.51 22.42c1.393 2.74 1.196 5.396-.43 7.973-1.375.56-1.387 1.55-.858 2.714l.177 1.49c-.45.032-1.19.247-1.305.065-1.154-1.81-.084-10.234 1.453-11.8.23-.235.638-.298.962-.44z"/><path fill="#464443" d="M144.64 29.476c-.59.26-1.323 1.13-1.79.212-.528-1.044-.26-2.112 1.165-2.42 1.596.343 1.136 1.268.625 2.208z"/><path fill="#756E66" d="M144.64 29.476c.144-.835.197-1.645-.625-2.207l1.33-1.324c.066.958.132 1.916.2 2.874-.123.23-.244.46-.364.69-.18-.006-.36-.017-.54-.034z"/><path fill="#888480" d="M35.96 124.558c-.61-.54-.92-1.21-.228-1.81.703-.61 1.303-.276 1.65.538-1.246-.438-1.392.353-1.423 1.272z"/><path fill="#4D4D4B" d="M138.222 33.107c-1.126-1.044-1.017-2.584-.398-3.47.94-1.345.96.23 1.257.756-.285.904-.57 1.81-.858 2.714z"/><path fill="#ABA8A4" d="M146.963 16.59l-.107-.758.63.77-.262-.014h-.26z"/><path fill="#D9D3CF" d="M569.698 693.287l.548-.658c1.325 1.21 2.113 2.756 2.747 4.396l-.685.767-2.61-4.506z"/><path fill="#706C6B" d="M113.12 56.03c-.945-3.744 1.413-5.66 4.225-7.48.424 1.515-.93 2.12-1.68 3.062 2.684.733 2.618-1.534 3.48-2.79.962 1.21-.565 2.603.375 3.737-1.732 1.898-4.802 1.328-6.4 3.47z"/></g></svg>