<?xml version="1.0" standalone="no"?>
<!DOCTYPE svg PUBLIC "-//W3C//DTD SVG 20010904//EN"
 "http://www.w3.org/TR/2001/REC-SVG-20010904/DTD/svg10.dtd">
<svg version="1.0" xmlns="http://www.w3.org/2000/svg"
 width="260.000000pt" height="260.000000pt" viewBox="0 0 260.000000 260.000000"
 preserveAspectRatio="xMidYMid meet">
<metadata>
Created by potrace 1.11, written by Peter Selinger 2001-2013
</metadata>
<g transform="translate(0.000000,260.000000) scale(0.100000,-0.100000)"
fill="#000000" stroke="none">
<path d="M725 2591 c-129 -6 -140 -14 -35 -26 131 -16 285 -72 419 -154 101
-61 117 -75 125 -107 5 -19 13 -24 38 -24 26 0 44 -13 102 -72 l71 -73 -34 -3
c-24 -2 -40 3 -56 18 -13 12 -29 20 -36 18 -22 -7 75 -76 143 -101 37 -13 82
-37 101 -53 62 -52 191 -266 227 -377 6 -21 14 -37 16 -34 14 14 -80 223 -161
357 -56 93 -134 202 -147 208 -5 2 -8 12 -8 22 0 10 -7 20 -15 24 -9 3 -15 18
-15 36 0 22 -4 29 -12 24 -10 -5 -10 -3 0 7 9 9 15 10 20 3 4 -6 27 -21 52
-35 25 -13 47 -26 50 -29 3 -3 21 -17 40 -30 57 -39 108 -82 163 -136 75 -74
133 -138 116 -130 -8 4 -4 -2 9 -13 13 -11 23 -22 23 -25 0 -10 33 -69 49 -86
8 -9 16 -23 18 -31 2 -8 8 -16 13 -17 5 -2 7 -8 3 -13 -3 -5 0 -9 6 -9 6 0 8
-4 5 -10 -3 -5 -1 -10 5 -10 6 0 9 -4 5 -9 -3 -5 -1 -12 5 -16 6 -4 8 -11 5
-16 -4 -5 -1 -9 5 -9 6 0 8 -4 5 -10 -3 -5 -2 -10 2 -10 5 0 10 -10 10 -22 1
-13 7 -24 13 -26 5 -2 8 -7 5 -12 -3 -4 2 -24 10 -43 8 -19 11 -37 8 -41 -4
-3 -1 -6 5 -6 6 0 9 -7 6 -15 -3 -8 -2 -20 2 -27 5 -7 9 -22 10 -33 1 -11 5
-40 8 -65 4 -25 8 -71 9 -102 2 -54 0 -59 -23 -66 -20 -7 -12 -10 45 -16 94
-10 157 -39 206 -94 75 -86 89 -216 34 -328 -32 -64 -84 -107 -158 -129 -61
-18 -377 -22 -377 -4 0 5 -4 8 -9 5 -14 -9 -19 16 -9 49 16 55 37 179 44 260
7 87 11 115 18 122 2 2 4 -9 3 -24 0 -15 3 -98 8 -185 6 -131 5 -161 -8 -187
-17 -34 -9 -41 16 -13 15 16 17 49 17 249 0 248 1 244 -55 258 l-30 8 29 12
c16 7 24 15 18 19 -6 3 -13 40 -17 81 -5 48 -12 75 -19 75 -16 0 -55 43 -94
104 -32 50 -32 76 3 90 38 14 1 86 -46 86 -9 0 -26 8 -38 18 -18 15 -19 21 -9
59 11 40 11 44 -15 71 -15 15 -27 35 -27 44 0 8 -6 21 -14 28 -8 6 -16 21 -18
33 -2 12 -17 31 -35 42 -36 22 -43 40 -13 30 16 -5 20 -2 20 14 0 17 -6 21
-34 21 -19 0 -42 3 -51 7 -15 5 -16 3 -6 -15 43 -80 -36 -50 -134 51 -38 40
-96 91 -128 115 -68 50 -86 81 -67 116 7 14 13 41 14 61 1 33 -2 38 -35 49
-20 7 -50 22 -66 34 -34 24 -109 54 -138 55 -11 1 -31 -3 -43 -7 -21 -7 -23
-5 -18 11 6 17 0 18 -92 16 -121 -3 -168 -13 -164 -36 4 -25 -15 -21 -42 8
-13 14 -31 25 -41 25 -17 0 -17 1 0 20 18 20 17 20 -21 20 -21 -1 -57 -7 -79
-15 -23 -8 -55 -12 -76 -9 -31 5 -41 2 -67 -24 -17 -17 -46 -33 -64 -37 -72
-16 -105 -42 -137 -107 -49 -101 -64 -176 -50 -245 6 -32 14 -77 16 -101 5
-44 30 -72 65 -72 11 0 18 -7 18 -19 0 -10 7 -21 15 -25 8 -3 15 -14 15 -24 0
-11 7 -25 15 -32 8 -7 15 -18 15 -26 0 -7 16 -16 38 -20 20 -3 49 -17 63 -30
l26 -24 18 20 c10 11 23 20 29 20 6 0 21 23 33 50 20 47 46 71 60 56 4 -3 -3
-20 -15 -36 -25 -33 -29 -85 -8 -97 8 -4 16 -19 18 -33 4 -23 5 -23 12 -5 4
11 12 28 17 38 8 14 6 22 -7 31 -19 15 -22 62 -4 79 10 9 14 9 17 0 2 -7 10
-10 17 -7 8 3 16 -2 19 -10 4 -9 16 -16 27 -16 43 0 97 -42 105 -81 5 -21 17
-35 43 -47 25 -11 38 -25 40 -41 4 -22 1 -24 -33 -18 l-36 6 26 -31 c26 -31
28 -56 5 -50 -8 2 -10 -3 -7 -13 4 -8 2 -15 -4 -15 -15 0 -87 38 -94 50 -3 5
-15 10 -26 10 -26 0 -24 18 6 42 14 11 25 28 25 39 0 25 -48 76 -80 84 -17 4
-21 3 -12 -3 8 -6 12 -24 10 -48 -3 -34 -7 -40 -31 -44 -19 -3 -38 -19 -56
-45 -17 -25 -40 -44 -60 -51 -42 -14 -71 -64 -64 -111 4 -26 13 -36 47 -52 62
-31 102 -74 111 -118 12 -65 45 -87 45 -30 0 18 9 50 21 71 14 26 19 49 15 68
-3 16 -3 55 1 88 6 58 7 60 34 60 30 0 99 -52 99 -74 0 -7 5 -17 12 -24 14
-14 48 2 48 23 0 37 42 -8 85 -89 5 -11 30 -32 55 -46 56 -32 66 -69 26 -96
-14 -9 -26 -23 -26 -30 0 -11 25 -14 123 -15 99 -1 115 -3 87 -11 -62 -17 -60
-10 -60 -259 0 -263 -1 -259 83 -259 108 0 153 28 186 116 20 51 48 76 38 33
-3 -13 -9 -59 -12 -102 l-7 -77 -255 0 c-167 0 -252 3 -248 10 3 6 17 10 29
10 43 0 47 16 44 213 l-3 185 -43 -29 c-51 -34 -66 -37 -57 -8 7 20 6 20 -26
4 -49 -26 -84 -64 -70 -78 18 -18 13 -25 -26 -43 -60 -28 -82 -58 -89 -120 -7
-52 -10 -58 -58 -93 -28 -21 -59 -40 -68 -44 -22 -8 -23 -45 -3 -94 17 -41 20
-99 4 -108 -16 -11 -48 24 -59 64 -6 20 -13 41 -17 47 -12 16 -84 50 -122 57
-32 7 -33 6 -27 -18 8 -32 -1 -31 -67 1 l-54 27 -47 -18 -47 -18 6 -41 c11
-69 34 -157 55 -203 17 -39 23 -44 42 -38 13 4 28 14 35 24 27 36 35 41 69 41
41 0 54 -22 30 -49 -9 -10 -16 -25 -16 -33 0 -9 -4 -18 -8 -20 -5 -1 -12 -15
-16 -30 l-6 -28 58 0 c75 0 100 -21 83 -71 -6 -18 -10 -34 -8 -35 7 -7 126
-34 184 -42 57 -8 112 0 165 22 13 6 15 3 11 -13 -7 -27 8 -27 25 0 14 22 43
19 73 -7 11 -10 24 -11 50 -4 47 14 103 12 118 -2 17 -18 934 -17 1071 1 362
46 493 176 542 541 18 135 18 1346 0 1480 -49 360 -177 491 -527 540 -89 13
-1113 21 -1330 11z m305 -200 c0 -17 -16 -20 -71 -14 -48 6 -51 8 -24 14 46
10 95 10 95 0z m-60 -206 c0 -11 -73 0 -77 12 -6 16 49 21 65 6 6 -6 12 -14
12 -18z m-130 -95 c12 -17 35 -37 51 -45 16 -9 29 -22 29 -30 0 -8 9 -15 20
-15 11 0 27 -12 37 -27 10 -16 28 -38 40 -50 15 -14 20 -28 16 -39 -5 -13 -3
-16 10 -11 13 5 17 1 17 -21 0 -15 -7 -36 -15 -46 -10 -13 -13 -32 -9 -56 4
-27 1 -41 -11 -53 -18 -18 -16 -44 11 -126 8 -24 11 -47 7 -51 -4 -4 -27 -3
-50 2 -72 15 -168 131 -156 189 4 24 3 27 -15 22 -25 -6 -38 13 -22 32 10 12
9 15 -9 15 -14 0 -25 9 -31 25 -5 13 -21 38 -36 55 -24 26 -32 29 -61 24 -25
-5 -33 -3 -33 9 0 8 -7 21 -16 28 -15 12 -14 15 6 31 16 13 19 22 12 34 -9 16
-21 0 -72 -101 -25 -49 -100 -44 -100 6 0 11 7 19 15 19 16 0 21 16 7 22 -5 2
-5 18 0 36 10 39 67 79 118 84 31 2 35 0 33 -20 -2 -12 -1 -22 2 -22 9 0 62
56 68 72 7 21 59 37 65 20 5 -17 32 -15 32 3 0 24 17 18 40 -15z m-572 -180
c5 -34 21 -51 46 -49 35 2 36 0 17 -34 -14 -25 -16 -38 -9 -51 12 -22 -4 -42
-24 -30 -7 5 -28 14 -47 19 -40 12 -63 41 -42 54 10 6 10 10 1 16 -6 4 -9 13
-6 21 3 8 -1 14 -9 14 -22 0 -18 20 7 47 28 30 62 27 66 -7z m966 -82 c22 -36
-51 -77 -82 -46 -17 17 -15 38 3 38 9 0 18 7 22 16 7 19 43 15 57 -8z m266
-28 c14 -11 41 -20 61 -20 44 0 68 -24 76 -75 5 -33 4 -37 -13 -33 -10 2 -30
20 -43 41 -13 20 -32 37 -41 37 -15 0 -89 26 -98 35 -1 1 0 10 4 19 8 21 23
20 54 -4z m59 -113 c21 -39 10 -52 -22 -27 -32 25 -40 78 -9 61 10 -5 24 -21
31 -34z m271 -602 c0 -81 -11 -96 -30 -40 -17 52 -62 85 -116 85 l-44 0 0
-243 c0 -261 1 -267 52 -267 15 0 28 -4 28 -10 0 -6 -57 -10 -151 -10 -97 0
-148 4 -144 10 3 6 17 10 29 10 45 0 48 15 49 270 l2 240 -38 0 c-21 0 -51 -7
-66 -15 -26 -13 -61 -67 -61 -94 0 -6 -4 -11 -10 -11 -6 0 -10 32 -10 75 l0
75 255 0 255 0 0 -75z m73 -534 c26 -5 50 -11 53 -13 2 -3 -7 -21 -21 -41 -13
-21 -22 -37 -18 -37 3 0 -4 -9 -17 -20 -13 -11 -20 -20 -16 -20 4 0 -3 -11
-16 -24 -13 -14 -34 -38 -48 -55 -14 -17 -31 -31 -37 -31 -7 0 -13 -5 -13 -11
0 -8 -5 -7 -15 1 -9 7 -18 10 -22 6 -3 -3 -1 -6 5 -6 7 0 12 -7 12 -15 0 -8
-5 -15 -11 -15 -5 0 -8 4 -4 9 3 5 1 12 -4 16 -7 4 -7 15 0 33 6 15 10 28 10
29 0 2 6 18 14 36 7 18 17 46 21 63 4 16 11 31 15 34 4 3 11 21 14 40 8 47 24
65 39 45 6 -8 33 -19 59 -24z m-1401 -243 c94 -41 106 -50 81 -59 -32 -13 -73
-10 -67 4 3 10 -19 24 -69 46 -61 27 -79 31 -95 22 -31 -16 -51 -13 -28 4 32
24 99 18 178 -17z m267 -82 c14 -15 12 -16 -21 -16 -20 0 -38 -5 -40 -11 -2
-6 -14 -8 -31 -4 -15 4 -24 11 -21 17 3 5 0 16 -8 25 -12 15 -8 16 46 10 33
-3 66 -13 75 -21z"/>
<path d="M1813 1570 c29 -125 41 -170 48 -170 8 0 -37 180 -48 190 -3 3 -3 -6
0 -20z"/>
<path d="M1862 1370 c0 -14 2 -19 5 -12 2 6 2 18 0 25 -3 6 -5 1 -5 -13z"/>
<path d="M746 1130 c-41 -37 -50 -62 -10 -31 15 12 38 21 51 21 20 0 23 -4 18
-20 -9 -29 20 -70 48 -70 33 0 47 19 47 62 0 42 -11 50 -83 63 -29 6 -40 2
-71 -25z"/>
<path d="M2080 892 c0 -273 -1 -269 76 -252 81 18 117 93 117 246 0 76 -4 100
-26 147 -29 64 -55 84 -120 93 l-47 7 0 -241z m56 153 c-4 -24 -16 -30 -16 -7
0 12 4 22 9 22 5 0 8 -7 7 -15z"/>
<path d="M302 1105 c-13 -7 -29 -18 -35 -25 -10 -10 -4 -11 24 -6 28 5 38 3
43 -9 5 -15 37 -21 49 -9 9 9 -32 64 -46 63 -7 -1 -23 -7 -35 -14z"/>
<path d="M363 1023 c-30 -6 -41 -22 -49 -72 -6 -35 -4 -43 7 -39 8 3 17 21 20
42 7 44 16 54 49 58 21 3 25 -1 25 -22 0 -30 13 -52 26 -45 5 4 9 15 9 26 0
16 5 19 23 14 20 -6 20 -4 -6 19 -27 25 -51 29 -104 19z"/>
</g>
</svg>
