<svg xmlns="http://www.w3.org/2000/svg" viewBox="0 0 882.16 617.71">
  <defs>
    <style>
      .cls-1{fill:#fff;}
    </style>
  </defs>
  <title>
    Asset 1
  </title>
  <g id="Layer_2" data-name="Layer 2">
    <g id="Livello_1" data-name="Livello 1">
      <path class="cls-1" d="M274.13 455.49c-10.84 0-16.38-8.22-12.31-18.27l147.6-364a22.8 22.8 0 0 0-9.87-27.77l-11.15-6.17a19.77 19.77 0 0 1-7.77-26.77l1.27-2.3a19.77 19.77 0 0 1 26.78-7.77l43.91 24.15a22.8 22.8 0 0 1 9.87 27.77l-138.2 340.81c-4.08 10 1.46 18.27 12.31 18.27H677c10.84 0 23-8.22 27.12-18.27l137.62-339.3A19.77 19.77 0 0 1 867.42 45l2.43 1a19.77 19.77 0 0 1 10.86 25.68L732.5 437.22c-4.07 10-16.28 18.27-27.12 18.27z"/>
      <ellipse class="cls-1" cx="312.1" cy="544.86" rx="74.27" ry="58.56" transform="rotate(-71.45 312.083 544.857)"/>
      <ellipse class="cls-1" cx="639.33" cy="544.86" rx="74.27" ry="58.56" transform="rotate(-71.45 639.315 544.856)"/>
      <rect class="cls-1" x="402.62" y="304.37" width="254.29" height="45.34" rx="19.71" ry="19.71"/>
      <rect class="cls-1" x="434.15" y="229.46" width="301.61" height="45.34" rx="19.71" ry="19.71"/>
      <path class="cls-1" d="M273.36 349.75l10.41-25.68-156.41 12.34zM127.36 157l216.14 19.77 15.41-38zM304.2 273.71l21.69-53.5L0 245.92z"/>
    </g>
  </g>
</svg>
